G04 #@! TF.GenerationSoftware,KiCad,Pcbnew,7.0.7*
G04 #@! TF.CreationDate,2023-09-19T16:43:04+02:00*
G04 #@! TF.ProjectId,discipad-pcb,64697363-6970-4616-942d-7063622e6b69,rev?*
G04 #@! TF.SameCoordinates,Original*
G04 #@! TF.FileFunction,Legend,Top*
G04 #@! TF.FilePolarity,Positive*
%FSLAX46Y46*%
G04 Gerber Fmt 4.6, Leading zero omitted, Abs format (unit mm)*
G04 Created by KiCad (PCBNEW 7.0.7) date 2023-09-19 16:43:04*
%MOMM*%
%LPD*%
G01*
G04 APERTURE LIST*
%ADD10C,0.120000*%
%ADD11C,0.150000*%
%ADD12C,0.075000*%
%ADD13C,0.100000*%
G04 APERTURE END LIST*
D10*
X136324321Y-27663811D02*
X136061856Y-27401346D01*
X136061856Y-28976136D02*
X135799391Y-28713671D01*
X136324321Y-30340954D02*
X136061856Y-30078489D01*
X136064831Y-26291931D02*
X135802366Y-26029466D01*
D11*
X177058889Y-31968237D02*
X176533959Y-31180842D01*
X177531326Y-31180842D01*
X177058889Y-31968237D01*
G36*
X177058889Y-31968237D02*
G01*
X176533959Y-31180842D01*
X177531326Y-31180842D01*
X177058889Y-31968237D01*
G37*
D12*
X139140049Y-84607239D02*
X139044811Y-84678667D01*
X139044811Y-84678667D02*
X138854335Y-84678667D01*
X138854335Y-84678667D02*
X138759097Y-84607239D01*
X138759097Y-84607239D02*
X138711478Y-84535810D01*
X138711478Y-84535810D02*
X138663859Y-84392953D01*
X138663859Y-84392953D02*
X138663859Y-83964381D01*
X138663859Y-83964381D02*
X138711478Y-83821524D01*
X138711478Y-83821524D02*
X138759097Y-83750096D01*
X138759097Y-83750096D02*
X138854335Y-83678667D01*
X138854335Y-83678667D02*
X139044811Y-83678667D01*
X139044811Y-83678667D02*
X139140049Y-83750096D01*
X139711478Y-84678667D02*
X139616240Y-84607239D01*
X139616240Y-84607239D02*
X139568621Y-84535810D01*
X139568621Y-84535810D02*
X139521002Y-84392953D01*
X139521002Y-84392953D02*
X139521002Y-83964381D01*
X139521002Y-83964381D02*
X139568621Y-83821524D01*
X139568621Y-83821524D02*
X139616240Y-83750096D01*
X139616240Y-83750096D02*
X139711478Y-83678667D01*
X139711478Y-83678667D02*
X139854335Y-83678667D01*
X139854335Y-83678667D02*
X139949573Y-83750096D01*
X139949573Y-83750096D02*
X139997192Y-83821524D01*
X139997192Y-83821524D02*
X140044811Y-83964381D01*
X140044811Y-83964381D02*
X140044811Y-84392953D01*
X140044811Y-84392953D02*
X139997192Y-84535810D01*
X139997192Y-84535810D02*
X139949573Y-84607239D01*
X139949573Y-84607239D02*
X139854335Y-84678667D01*
X139854335Y-84678667D02*
X139711478Y-84678667D01*
X140425764Y-84607239D02*
X140521002Y-84678667D01*
X140521002Y-84678667D02*
X140711478Y-84678667D01*
X140711478Y-84678667D02*
X140806716Y-84607239D01*
X140806716Y-84607239D02*
X140854335Y-84464381D01*
X140854335Y-84464381D02*
X140854335Y-84392953D01*
X140854335Y-84392953D02*
X140806716Y-84250096D01*
X140806716Y-84250096D02*
X140711478Y-84178667D01*
X140711478Y-84178667D02*
X140568621Y-84178667D01*
X140568621Y-84178667D02*
X140473383Y-84107239D01*
X140473383Y-84107239D02*
X140425764Y-83964381D01*
X140425764Y-83964381D02*
X140425764Y-83892953D01*
X140425764Y-83892953D02*
X140473383Y-83750096D01*
X140473383Y-83750096D02*
X140568621Y-83678667D01*
X140568621Y-83678667D02*
X140711478Y-83678667D01*
X140711478Y-83678667D02*
X140806716Y-83750096D01*
X141663859Y-84607239D02*
X141568621Y-84678667D01*
X141568621Y-84678667D02*
X141378145Y-84678667D01*
X141378145Y-84678667D02*
X141282907Y-84607239D01*
X141282907Y-84607239D02*
X141235288Y-84464381D01*
X141235288Y-84464381D02*
X141235288Y-83892953D01*
X141235288Y-83892953D02*
X141282907Y-83750096D01*
X141282907Y-83750096D02*
X141378145Y-83678667D01*
X141378145Y-83678667D02*
X141568621Y-83678667D01*
X141568621Y-83678667D02*
X141663859Y-83750096D01*
X141663859Y-83750096D02*
X141711478Y-83892953D01*
X141711478Y-83892953D02*
X141711478Y-84035810D01*
X141711478Y-84035810D02*
X141235288Y-84178667D01*
X142044812Y-83678667D02*
X142282907Y-84678667D01*
X142521002Y-83678667D02*
X142282907Y-84678667D01*
X142282907Y-84678667D02*
X142187669Y-85035810D01*
X142187669Y-85035810D02*
X142140050Y-85107239D01*
X142140050Y-85107239D02*
X142044812Y-85178667D01*
X142759098Y-83678667D02*
X143140050Y-83678667D01*
X142901955Y-84678667D02*
X142901955Y-83392953D01*
X142901955Y-83392953D02*
X142949574Y-83250096D01*
X142949574Y-83250096D02*
X143044812Y-83178667D01*
X143044812Y-83178667D02*
X143140050Y-83178667D01*
X143901955Y-84678667D02*
X143901955Y-83892953D01*
X143901955Y-83892953D02*
X143854336Y-83750096D01*
X143854336Y-83750096D02*
X143759098Y-83678667D01*
X143759098Y-83678667D02*
X143568622Y-83678667D01*
X143568622Y-83678667D02*
X143473384Y-83750096D01*
X143901955Y-84607239D02*
X143806717Y-84678667D01*
X143806717Y-84678667D02*
X143568622Y-84678667D01*
X143568622Y-84678667D02*
X143473384Y-84607239D01*
X143473384Y-84607239D02*
X143425765Y-84464381D01*
X143425765Y-84464381D02*
X143425765Y-84321524D01*
X143425765Y-84321524D02*
X143473384Y-84178667D01*
X143473384Y-84178667D02*
X143568622Y-84107239D01*
X143568622Y-84107239D02*
X143806717Y-84107239D01*
X143806717Y-84107239D02*
X143901955Y-84035810D01*
X144378146Y-83678667D02*
X144378146Y-84678667D01*
X144378146Y-83821524D02*
X144425765Y-83750096D01*
X144425765Y-83750096D02*
X144521003Y-83678667D01*
X144521003Y-83678667D02*
X144663860Y-83678667D01*
X144663860Y-83678667D02*
X144759098Y-83750096D01*
X144759098Y-83750096D02*
X144806717Y-83892953D01*
X144806717Y-83892953D02*
X144806717Y-84678667D01*
X145282908Y-83678667D02*
X145282908Y-84678667D01*
X145282908Y-83821524D02*
X145330527Y-83750096D01*
X145330527Y-83750096D02*
X145425765Y-83678667D01*
X145425765Y-83678667D02*
X145568622Y-83678667D01*
X145568622Y-83678667D02*
X145663860Y-83750096D01*
X145663860Y-83750096D02*
X145711479Y-83892953D01*
X145711479Y-83892953D02*
X145711479Y-84678667D01*
X146187670Y-84678667D02*
X146187670Y-83678667D01*
X146187670Y-83178667D02*
X146140051Y-83250096D01*
X146140051Y-83250096D02*
X146187670Y-83321524D01*
X146187670Y-83321524D02*
X146235289Y-83250096D01*
X146235289Y-83250096D02*
X146187670Y-83178667D01*
X146187670Y-83178667D02*
X146187670Y-83321524D01*
X146521003Y-83678667D02*
X146901955Y-83678667D01*
X146663860Y-83178667D02*
X146663860Y-84464381D01*
X146663860Y-84464381D02*
X146711479Y-84607239D01*
X146711479Y-84607239D02*
X146806717Y-84678667D01*
X146806717Y-84678667D02*
X146901955Y-84678667D01*
X147663860Y-83678667D02*
X147663860Y-84678667D01*
X147235289Y-83678667D02*
X147235289Y-84464381D01*
X147235289Y-84464381D02*
X147282908Y-84607239D01*
X147282908Y-84607239D02*
X147378146Y-84678667D01*
X147378146Y-84678667D02*
X147521003Y-84678667D01*
X147521003Y-84678667D02*
X147616241Y-84607239D01*
X147616241Y-84607239D02*
X147663860Y-84535810D01*
X147997194Y-83678667D02*
X148378146Y-83678667D01*
X148140051Y-83178667D02*
X148140051Y-84464381D01*
X148140051Y-84464381D02*
X148187670Y-84607239D01*
X148187670Y-84607239D02*
X148282908Y-84678667D01*
X148282908Y-84678667D02*
X148378146Y-84678667D01*
X148568623Y-83678667D02*
X148949575Y-83678667D01*
X148711480Y-83178667D02*
X148711480Y-84464381D01*
X148711480Y-84464381D02*
X148759099Y-84607239D01*
X148759099Y-84607239D02*
X148854337Y-84678667D01*
X148854337Y-84678667D02*
X148949575Y-84678667D01*
X149282909Y-84678667D02*
X149282909Y-83678667D01*
X149282909Y-83178667D02*
X149235290Y-83250096D01*
X149235290Y-83250096D02*
X149282909Y-83321524D01*
X149282909Y-83321524D02*
X149330528Y-83250096D01*
X149330528Y-83250096D02*
X149282909Y-83178667D01*
X149282909Y-83178667D02*
X149282909Y-83321524D01*
X150473385Y-83321524D02*
X150521004Y-83250096D01*
X150521004Y-83250096D02*
X150616242Y-83178667D01*
X150616242Y-83178667D02*
X150854337Y-83178667D01*
X150854337Y-83178667D02*
X150949575Y-83250096D01*
X150949575Y-83250096D02*
X150997194Y-83321524D01*
X150997194Y-83321524D02*
X151044813Y-83464381D01*
X151044813Y-83464381D02*
X151044813Y-83607239D01*
X151044813Y-83607239D02*
X150997194Y-83821524D01*
X150997194Y-83821524D02*
X150425766Y-84678667D01*
X150425766Y-84678667D02*
X151044813Y-84678667D01*
X151663861Y-83178667D02*
X151759099Y-83178667D01*
X151759099Y-83178667D02*
X151854337Y-83250096D01*
X151854337Y-83250096D02*
X151901956Y-83321524D01*
X151901956Y-83321524D02*
X151949575Y-83464381D01*
X151949575Y-83464381D02*
X151997194Y-83750096D01*
X151997194Y-83750096D02*
X151997194Y-84107239D01*
X151997194Y-84107239D02*
X151949575Y-84392953D01*
X151949575Y-84392953D02*
X151901956Y-84535810D01*
X151901956Y-84535810D02*
X151854337Y-84607239D01*
X151854337Y-84607239D02*
X151759099Y-84678667D01*
X151759099Y-84678667D02*
X151663861Y-84678667D01*
X151663861Y-84678667D02*
X151568623Y-84607239D01*
X151568623Y-84607239D02*
X151521004Y-84535810D01*
X151521004Y-84535810D02*
X151473385Y-84392953D01*
X151473385Y-84392953D02*
X151425766Y-84107239D01*
X151425766Y-84107239D02*
X151425766Y-83750096D01*
X151425766Y-83750096D02*
X151473385Y-83464381D01*
X151473385Y-83464381D02*
X151521004Y-83321524D01*
X151521004Y-83321524D02*
X151568623Y-83250096D01*
X151568623Y-83250096D02*
X151663861Y-83178667D01*
X152949575Y-84678667D02*
X152378147Y-84678667D01*
X152663861Y-84678667D02*
X152663861Y-83178667D01*
X152663861Y-83178667D02*
X152568623Y-83392953D01*
X152568623Y-83392953D02*
X152473385Y-83535810D01*
X152473385Y-83535810D02*
X152378147Y-83607239D01*
X153425766Y-84678667D02*
X153616242Y-84678667D01*
X153616242Y-84678667D02*
X153711480Y-84607239D01*
X153711480Y-84607239D02*
X153759099Y-84535810D01*
X153759099Y-84535810D02*
X153854337Y-84321524D01*
X153854337Y-84321524D02*
X153901956Y-84035810D01*
X153901956Y-84035810D02*
X153901956Y-83464381D01*
X153901956Y-83464381D02*
X153854337Y-83321524D01*
X153854337Y-83321524D02*
X153806718Y-83250096D01*
X153806718Y-83250096D02*
X153711480Y-83178667D01*
X153711480Y-83178667D02*
X153521004Y-83178667D01*
X153521004Y-83178667D02*
X153425766Y-83250096D01*
X153425766Y-83250096D02*
X153378147Y-83321524D01*
X153378147Y-83321524D02*
X153330528Y-83464381D01*
X153330528Y-83464381D02*
X153330528Y-83821524D01*
X153330528Y-83821524D02*
X153378147Y-83964381D01*
X153378147Y-83964381D02*
X153425766Y-84035810D01*
X153425766Y-84035810D02*
X153521004Y-84107239D01*
X153521004Y-84107239D02*
X153711480Y-84107239D01*
X153711480Y-84107239D02*
X153806718Y-84035810D01*
X153806718Y-84035810D02*
X153854337Y-83964381D01*
X153854337Y-83964381D02*
X153901956Y-83821524D01*
X138711478Y-87093667D02*
X138711478Y-86093667D01*
X138711478Y-86379381D02*
X138759097Y-86236524D01*
X138759097Y-86236524D02*
X138806716Y-86165096D01*
X138806716Y-86165096D02*
X138901954Y-86093667D01*
X138901954Y-86093667D02*
X138997192Y-86093667D01*
X139711478Y-87022239D02*
X139616240Y-87093667D01*
X139616240Y-87093667D02*
X139425764Y-87093667D01*
X139425764Y-87093667D02*
X139330526Y-87022239D01*
X139330526Y-87022239D02*
X139282907Y-86879381D01*
X139282907Y-86879381D02*
X139282907Y-86307953D01*
X139282907Y-86307953D02*
X139330526Y-86165096D01*
X139330526Y-86165096D02*
X139425764Y-86093667D01*
X139425764Y-86093667D02*
X139616240Y-86093667D01*
X139616240Y-86093667D02*
X139711478Y-86165096D01*
X139711478Y-86165096D02*
X139759097Y-86307953D01*
X139759097Y-86307953D02*
X139759097Y-86450810D01*
X139759097Y-86450810D02*
X139282907Y-86593667D01*
X140092431Y-86093667D02*
X140330526Y-87093667D01*
X140330526Y-87093667D02*
X140568621Y-86093667D01*
X141473383Y-87093667D02*
X140901955Y-87093667D01*
X141187669Y-87093667D02*
X141187669Y-85593667D01*
X141187669Y-85593667D02*
X141092431Y-85807953D01*
X141092431Y-85807953D02*
X140997193Y-85950810D01*
X140997193Y-85950810D02*
X140901955Y-86022239D01*
D13*
X147122344Y-22728242D02*
X147236630Y-22766337D01*
X147236630Y-22766337D02*
X147274725Y-22804433D01*
X147274725Y-22804433D02*
X147312821Y-22880623D01*
X147312821Y-22880623D02*
X147312821Y-22994909D01*
X147312821Y-22994909D02*
X147274725Y-23071099D01*
X147274725Y-23071099D02*
X147236630Y-23109195D01*
X147236630Y-23109195D02*
X147160440Y-23147290D01*
X147160440Y-23147290D02*
X146855678Y-23147290D01*
X146855678Y-23147290D02*
X146855678Y-22347290D01*
X146855678Y-22347290D02*
X147122344Y-22347290D01*
X147122344Y-22347290D02*
X147198535Y-22385385D01*
X147198535Y-22385385D02*
X147236630Y-22423480D01*
X147236630Y-22423480D02*
X147274725Y-22499671D01*
X147274725Y-22499671D02*
X147274725Y-22575861D01*
X147274725Y-22575861D02*
X147236630Y-22652052D01*
X147236630Y-22652052D02*
X147198535Y-22690147D01*
X147198535Y-22690147D02*
X147122344Y-22728242D01*
X147122344Y-22728242D02*
X146855678Y-22728242D01*
X147808059Y-22347290D02*
X147960440Y-22347290D01*
X147960440Y-22347290D02*
X148036630Y-22385385D01*
X148036630Y-22385385D02*
X148112821Y-22461575D01*
X148112821Y-22461575D02*
X148150916Y-22613956D01*
X148150916Y-22613956D02*
X148150916Y-22880623D01*
X148150916Y-22880623D02*
X148112821Y-23033004D01*
X148112821Y-23033004D02*
X148036630Y-23109195D01*
X148036630Y-23109195D02*
X147960440Y-23147290D01*
X147960440Y-23147290D02*
X147808059Y-23147290D01*
X147808059Y-23147290D02*
X147731868Y-23109195D01*
X147731868Y-23109195D02*
X147655678Y-23033004D01*
X147655678Y-23033004D02*
X147617582Y-22880623D01*
X147617582Y-22880623D02*
X147617582Y-22613956D01*
X147617582Y-22613956D02*
X147655678Y-22461575D01*
X147655678Y-22461575D02*
X147731868Y-22385385D01*
X147731868Y-22385385D02*
X147808059Y-22347290D01*
X148646154Y-22347290D02*
X148798535Y-22347290D01*
X148798535Y-22347290D02*
X148874725Y-22385385D01*
X148874725Y-22385385D02*
X148950916Y-22461575D01*
X148950916Y-22461575D02*
X148989011Y-22613956D01*
X148989011Y-22613956D02*
X148989011Y-22880623D01*
X148989011Y-22880623D02*
X148950916Y-23033004D01*
X148950916Y-23033004D02*
X148874725Y-23109195D01*
X148874725Y-23109195D02*
X148798535Y-23147290D01*
X148798535Y-23147290D02*
X148646154Y-23147290D01*
X148646154Y-23147290D02*
X148569963Y-23109195D01*
X148569963Y-23109195D02*
X148493773Y-23033004D01*
X148493773Y-23033004D02*
X148455677Y-22880623D01*
X148455677Y-22880623D02*
X148455677Y-22613956D01*
X148455677Y-22613956D02*
X148493773Y-22461575D01*
X148493773Y-22461575D02*
X148569963Y-22385385D01*
X148569963Y-22385385D02*
X148646154Y-22347290D01*
X149217582Y-22347290D02*
X149674725Y-22347290D01*
X149446153Y-23147290D02*
X149446153Y-22347290D01*
D11*
X175008357Y-29997354D02*
X174922643Y-29954497D01*
X174922643Y-29954497D02*
X174794071Y-29954497D01*
X174794071Y-29954497D02*
X174665500Y-29997354D01*
X174665500Y-29997354D02*
X174579785Y-30083068D01*
X174579785Y-30083068D02*
X174536928Y-30168782D01*
X174536928Y-30168782D02*
X174494071Y-30340211D01*
X174494071Y-30340211D02*
X174494071Y-30468782D01*
X174494071Y-30468782D02*
X174536928Y-30640211D01*
X174536928Y-30640211D02*
X174579785Y-30725925D01*
X174579785Y-30725925D02*
X174665500Y-30811640D01*
X174665500Y-30811640D02*
X174794071Y-30854497D01*
X174794071Y-30854497D02*
X174879785Y-30854497D01*
X174879785Y-30854497D02*
X175008357Y-30811640D01*
X175008357Y-30811640D02*
X175051214Y-30768782D01*
X175051214Y-30768782D02*
X175051214Y-30468782D01*
X175051214Y-30468782D02*
X174879785Y-30468782D01*
X175436928Y-30854497D02*
X175436928Y-29954497D01*
X175436928Y-29954497D02*
X175951214Y-30854497D01*
X175951214Y-30854497D02*
X175951214Y-29954497D01*
X176379785Y-30854497D02*
X176379785Y-29954497D01*
X176379785Y-29954497D02*
X176594071Y-29954497D01*
X176594071Y-29954497D02*
X176722642Y-29997354D01*
X176722642Y-29997354D02*
X176808357Y-30083068D01*
X176808357Y-30083068D02*
X176851214Y-30168782D01*
X176851214Y-30168782D02*
X176894071Y-30340211D01*
X176894071Y-30340211D02*
X176894071Y-30468782D01*
X176894071Y-30468782D02*
X176851214Y-30640211D01*
X176851214Y-30640211D02*
X176808357Y-30725925D01*
X176808357Y-30725925D02*
X176722642Y-30811640D01*
X176722642Y-30811640D02*
X176594071Y-30854497D01*
X176594071Y-30854497D02*
X176379785Y-30854497D01*
X111793662Y-34587669D02*
X112269852Y-34587669D01*
X111698424Y-34873384D02*
X112031757Y-33873384D01*
X112031757Y-33873384D02*
X112365090Y-34873384D01*
X112555567Y-33873384D02*
X113126995Y-33873384D01*
X112841281Y-34873384D02*
X112841281Y-33873384D01*
X113460329Y-34873384D02*
X113460329Y-33873384D01*
X113460329Y-33873384D02*
X113793662Y-34587669D01*
X113793662Y-34587669D02*
X114126995Y-33873384D01*
X114126995Y-33873384D02*
X114126995Y-34873384D01*
X114603186Y-34349574D02*
X114936519Y-34349574D01*
X115079376Y-34873384D02*
X114603186Y-34873384D01*
X114603186Y-34873384D02*
X114603186Y-33873384D01*
X114603186Y-33873384D02*
X115079376Y-33873384D01*
X116031757Y-33921003D02*
X115936519Y-33873384D01*
X115936519Y-33873384D02*
X115793662Y-33873384D01*
X115793662Y-33873384D02*
X115650805Y-33921003D01*
X115650805Y-33921003D02*
X115555567Y-34016241D01*
X115555567Y-34016241D02*
X115507948Y-34111479D01*
X115507948Y-34111479D02*
X115460329Y-34301955D01*
X115460329Y-34301955D02*
X115460329Y-34444812D01*
X115460329Y-34444812D02*
X115507948Y-34635288D01*
X115507948Y-34635288D02*
X115555567Y-34730526D01*
X115555567Y-34730526D02*
X115650805Y-34825765D01*
X115650805Y-34825765D02*
X115793662Y-34873384D01*
X115793662Y-34873384D02*
X115888900Y-34873384D01*
X115888900Y-34873384D02*
X116031757Y-34825765D01*
X116031757Y-34825765D02*
X116079376Y-34778145D01*
X116079376Y-34778145D02*
X116079376Y-34444812D01*
X116079376Y-34444812D02*
X115888900Y-34444812D01*
X116460329Y-34587669D02*
X116936519Y-34587669D01*
X116365091Y-34873384D02*
X116698424Y-33873384D01*
X116698424Y-33873384D02*
X117031757Y-34873384D01*
X117269853Y-33873384D02*
X117888900Y-33873384D01*
X117888900Y-33873384D02*
X117555567Y-34254336D01*
X117555567Y-34254336D02*
X117698424Y-34254336D01*
X117698424Y-34254336D02*
X117793662Y-34301955D01*
X117793662Y-34301955D02*
X117841281Y-34349574D01*
X117841281Y-34349574D02*
X117888900Y-34444812D01*
X117888900Y-34444812D02*
X117888900Y-34682907D01*
X117888900Y-34682907D02*
X117841281Y-34778145D01*
X117841281Y-34778145D02*
X117793662Y-34825765D01*
X117793662Y-34825765D02*
X117698424Y-34873384D01*
X117698424Y-34873384D02*
X117412710Y-34873384D01*
X117412710Y-34873384D02*
X117317472Y-34825765D01*
X117317472Y-34825765D02*
X117269853Y-34778145D01*
X118269853Y-33968622D02*
X118317472Y-33921003D01*
X118317472Y-33921003D02*
X118412710Y-33873384D01*
X118412710Y-33873384D02*
X118650805Y-33873384D01*
X118650805Y-33873384D02*
X118746043Y-33921003D01*
X118746043Y-33921003D02*
X118793662Y-33968622D01*
X118793662Y-33968622D02*
X118841281Y-34063860D01*
X118841281Y-34063860D02*
X118841281Y-34159098D01*
X118841281Y-34159098D02*
X118793662Y-34301955D01*
X118793662Y-34301955D02*
X118222234Y-34873384D01*
X118222234Y-34873384D02*
X118841281Y-34873384D01*
X119412710Y-34301955D02*
X119317472Y-34254336D01*
X119317472Y-34254336D02*
X119269853Y-34206717D01*
X119269853Y-34206717D02*
X119222234Y-34111479D01*
X119222234Y-34111479D02*
X119222234Y-34063860D01*
X119222234Y-34063860D02*
X119269853Y-33968622D01*
X119269853Y-33968622D02*
X119317472Y-33921003D01*
X119317472Y-33921003D02*
X119412710Y-33873384D01*
X119412710Y-33873384D02*
X119603186Y-33873384D01*
X119603186Y-33873384D02*
X119698424Y-33921003D01*
X119698424Y-33921003D02*
X119746043Y-33968622D01*
X119746043Y-33968622D02*
X119793662Y-34063860D01*
X119793662Y-34063860D02*
X119793662Y-34111479D01*
X119793662Y-34111479D02*
X119746043Y-34206717D01*
X119746043Y-34206717D02*
X119698424Y-34254336D01*
X119698424Y-34254336D02*
X119603186Y-34301955D01*
X119603186Y-34301955D02*
X119412710Y-34301955D01*
X119412710Y-34301955D02*
X119317472Y-34349574D01*
X119317472Y-34349574D02*
X119269853Y-34397193D01*
X119269853Y-34397193D02*
X119222234Y-34492431D01*
X119222234Y-34492431D02*
X119222234Y-34682907D01*
X119222234Y-34682907D02*
X119269853Y-34778145D01*
X119269853Y-34778145D02*
X119317472Y-34825765D01*
X119317472Y-34825765D02*
X119412710Y-34873384D01*
X119412710Y-34873384D02*
X119603186Y-34873384D01*
X119603186Y-34873384D02*
X119698424Y-34825765D01*
X119698424Y-34825765D02*
X119746043Y-34778145D01*
X119746043Y-34778145D02*
X119793662Y-34682907D01*
X119793662Y-34682907D02*
X119793662Y-34492431D01*
X119793662Y-34492431D02*
X119746043Y-34397193D01*
X119746043Y-34397193D02*
X119698424Y-34349574D01*
X119698424Y-34349574D02*
X119603186Y-34301955D01*
X120222234Y-34873384D02*
X120222234Y-33873384D01*
X120222234Y-33873384D02*
X120603186Y-33873384D01*
X120603186Y-33873384D02*
X120698424Y-33921003D01*
X120698424Y-33921003D02*
X120746043Y-33968622D01*
X120746043Y-33968622D02*
X120793662Y-34063860D01*
X120793662Y-34063860D02*
X120793662Y-34206717D01*
X120793662Y-34206717D02*
X120746043Y-34301955D01*
X120746043Y-34301955D02*
X120698424Y-34349574D01*
X120698424Y-34349574D02*
X120603186Y-34397193D01*
X120603186Y-34397193D02*
X120222234Y-34397193D01*
X121222234Y-34492431D02*
X121984139Y-34492431D01*
X122460329Y-34873384D02*
X122460329Y-33873384D01*
X122460329Y-33873384D02*
X122841281Y-33873384D01*
X122841281Y-33873384D02*
X122936519Y-33921003D01*
X122936519Y-33921003D02*
X122984138Y-33968622D01*
X122984138Y-33968622D02*
X123031757Y-34063860D01*
X123031757Y-34063860D02*
X123031757Y-34206717D01*
X123031757Y-34206717D02*
X122984138Y-34301955D01*
X122984138Y-34301955D02*
X122936519Y-34349574D01*
X122936519Y-34349574D02*
X122841281Y-34397193D01*
X122841281Y-34397193D02*
X122460329Y-34397193D01*
X123460329Y-33873384D02*
X123460329Y-34682907D01*
X123460329Y-34682907D02*
X123507948Y-34778145D01*
X123507948Y-34778145D02*
X123555567Y-34825765D01*
X123555567Y-34825765D02*
X123650805Y-34873384D01*
X123650805Y-34873384D02*
X123841281Y-34873384D01*
X123841281Y-34873384D02*
X123936519Y-34825765D01*
X123936519Y-34825765D02*
X123984138Y-34778145D01*
X123984138Y-34778145D02*
X124031757Y-34682907D01*
X124031757Y-34682907D02*
X124031757Y-33873384D01*
X177500010Y-41399359D02*
X177500010Y-40399359D01*
X177928581Y-41351740D02*
X178071438Y-41399359D01*
X178071438Y-41399359D02*
X178309533Y-41399359D01*
X178309533Y-41399359D02*
X178404771Y-41351740D01*
X178404771Y-41351740D02*
X178452390Y-41304120D01*
X178452390Y-41304120D02*
X178500009Y-41208882D01*
X178500009Y-41208882D02*
X178500009Y-41113644D01*
X178500009Y-41113644D02*
X178452390Y-41018406D01*
X178452390Y-41018406D02*
X178404771Y-40970787D01*
X178404771Y-40970787D02*
X178309533Y-40923168D01*
X178309533Y-40923168D02*
X178119057Y-40875549D01*
X178119057Y-40875549D02*
X178023819Y-40827930D01*
X178023819Y-40827930D02*
X177976200Y-40780311D01*
X177976200Y-40780311D02*
X177928581Y-40685073D01*
X177928581Y-40685073D02*
X177928581Y-40589835D01*
X177928581Y-40589835D02*
X177976200Y-40494597D01*
X177976200Y-40494597D02*
X178023819Y-40446978D01*
X178023819Y-40446978D02*
X178119057Y-40399359D01*
X178119057Y-40399359D02*
X178357152Y-40399359D01*
X178357152Y-40399359D02*
X178500009Y-40446978D01*
X178928581Y-41399359D02*
X178928581Y-40399359D01*
X178928581Y-40399359D02*
X179309533Y-40399359D01*
X179309533Y-40399359D02*
X179404771Y-40446978D01*
X179404771Y-40446978D02*
X179452390Y-40494597D01*
X179452390Y-40494597D02*
X179500009Y-40589835D01*
X179500009Y-40589835D02*
X179500009Y-40732692D01*
X179500009Y-40732692D02*
X179452390Y-40827930D01*
X179452390Y-40827930D02*
X179404771Y-40875549D01*
X179404771Y-40875549D02*
X179309533Y-40923168D01*
X179309533Y-40923168D02*
X178928581Y-40923168D01*
D13*
X137002302Y-23129792D02*
X136735635Y-22748839D01*
X136545159Y-23129792D02*
X136545159Y-22329792D01*
X136545159Y-22329792D02*
X136849921Y-22329792D01*
X136849921Y-22329792D02*
X136926111Y-22367887D01*
X136926111Y-22367887D02*
X136964206Y-22405982D01*
X136964206Y-22405982D02*
X137002302Y-22482173D01*
X137002302Y-22482173D02*
X137002302Y-22596458D01*
X137002302Y-22596458D02*
X136964206Y-22672649D01*
X136964206Y-22672649D02*
X136926111Y-22710744D01*
X136926111Y-22710744D02*
X136849921Y-22748839D01*
X136849921Y-22748839D02*
X136545159Y-22748839D01*
X137345159Y-22710744D02*
X137611825Y-22710744D01*
X137726111Y-23129792D02*
X137345159Y-23129792D01*
X137345159Y-23129792D02*
X137345159Y-22329792D01*
X137345159Y-22329792D02*
X137726111Y-22329792D01*
X138030873Y-23091697D02*
X138145159Y-23129792D01*
X138145159Y-23129792D02*
X138335635Y-23129792D01*
X138335635Y-23129792D02*
X138411826Y-23091697D01*
X138411826Y-23091697D02*
X138449921Y-23053601D01*
X138449921Y-23053601D02*
X138488016Y-22977411D01*
X138488016Y-22977411D02*
X138488016Y-22901220D01*
X138488016Y-22901220D02*
X138449921Y-22825030D01*
X138449921Y-22825030D02*
X138411826Y-22786935D01*
X138411826Y-22786935D02*
X138335635Y-22748839D01*
X138335635Y-22748839D02*
X138183254Y-22710744D01*
X138183254Y-22710744D02*
X138107064Y-22672649D01*
X138107064Y-22672649D02*
X138068969Y-22634554D01*
X138068969Y-22634554D02*
X138030873Y-22558363D01*
X138030873Y-22558363D02*
X138030873Y-22482173D01*
X138030873Y-22482173D02*
X138068969Y-22405982D01*
X138068969Y-22405982D02*
X138107064Y-22367887D01*
X138107064Y-22367887D02*
X138183254Y-22329792D01*
X138183254Y-22329792D02*
X138373731Y-22329792D01*
X138373731Y-22329792D02*
X138488016Y-22367887D01*
X138830874Y-22710744D02*
X139097540Y-22710744D01*
X139211826Y-23129792D02*
X138830874Y-23129792D01*
X138830874Y-23129792D02*
X138830874Y-22329792D01*
X138830874Y-22329792D02*
X139211826Y-22329792D01*
X139440398Y-22329792D02*
X139897541Y-22329792D01*
X139668969Y-23129792D02*
X139668969Y-22329792D01*
D11*
X155078756Y-27817805D02*
X154278756Y-27817805D01*
X154278756Y-27817805D02*
X154278756Y-27627329D01*
X154278756Y-27627329D02*
X154316851Y-27513043D01*
X154316851Y-27513043D02*
X154393041Y-27436853D01*
X154393041Y-27436853D02*
X154469232Y-27398758D01*
X154469232Y-27398758D02*
X154621613Y-27360662D01*
X154621613Y-27360662D02*
X154735899Y-27360662D01*
X154735899Y-27360662D02*
X154888280Y-27398758D01*
X154888280Y-27398758D02*
X154964470Y-27436853D01*
X154964470Y-27436853D02*
X155040661Y-27513043D01*
X155040661Y-27513043D02*
X155078756Y-27627329D01*
X155078756Y-27627329D02*
X155078756Y-27817805D01*
X155078756Y-26598758D02*
X155078756Y-27055901D01*
X155078756Y-26827329D02*
X154278756Y-26827329D01*
X154278756Y-26827329D02*
X154393041Y-26903520D01*
X154393041Y-26903520D02*
X154469232Y-26979710D01*
X154469232Y-26979710D02*
X154507327Y-27055901D01*
X179888355Y-25734622D02*
X179088355Y-25734622D01*
X179088355Y-25734622D02*
X179088355Y-25544146D01*
X179088355Y-25544146D02*
X179126450Y-25429860D01*
X179126450Y-25429860D02*
X179202640Y-25353670D01*
X179202640Y-25353670D02*
X179278831Y-25315575D01*
X179278831Y-25315575D02*
X179431212Y-25277479D01*
X179431212Y-25277479D02*
X179545498Y-25277479D01*
X179545498Y-25277479D02*
X179697879Y-25315575D01*
X179697879Y-25315575D02*
X179774069Y-25353670D01*
X179774069Y-25353670D02*
X179850260Y-25429860D01*
X179850260Y-25429860D02*
X179888355Y-25544146D01*
X179888355Y-25544146D02*
X179888355Y-25734622D01*
X179164545Y-24972718D02*
X179126450Y-24934622D01*
X179126450Y-24934622D02*
X179088355Y-24858432D01*
X179088355Y-24858432D02*
X179088355Y-24667956D01*
X179088355Y-24667956D02*
X179126450Y-24591765D01*
X179126450Y-24591765D02*
X179164545Y-24553670D01*
X179164545Y-24553670D02*
X179240736Y-24515575D01*
X179240736Y-24515575D02*
X179316926Y-24515575D01*
X179316926Y-24515575D02*
X179431212Y-24553670D01*
X179431212Y-24553670D02*
X179888355Y-25010813D01*
X179888355Y-25010813D02*
X179888355Y-24515575D01*
X155078756Y-41499218D02*
X154278756Y-41499218D01*
X154278756Y-41499218D02*
X154278756Y-41308742D01*
X154278756Y-41308742D02*
X154316851Y-41194456D01*
X154316851Y-41194456D02*
X154393041Y-41118266D01*
X154393041Y-41118266D02*
X154469232Y-41080171D01*
X154469232Y-41080171D02*
X154621613Y-41042075D01*
X154621613Y-41042075D02*
X154735899Y-41042075D01*
X154735899Y-41042075D02*
X154888280Y-41080171D01*
X154888280Y-41080171D02*
X154964470Y-41118266D01*
X154964470Y-41118266D02*
X155040661Y-41194456D01*
X155040661Y-41194456D02*
X155078756Y-41308742D01*
X155078756Y-41308742D02*
X155078756Y-41499218D01*
X154278756Y-40775409D02*
X154278756Y-40280171D01*
X154278756Y-40280171D02*
X154583518Y-40546837D01*
X154583518Y-40546837D02*
X154583518Y-40432552D01*
X154583518Y-40432552D02*
X154621613Y-40356361D01*
X154621613Y-40356361D02*
X154659708Y-40318266D01*
X154659708Y-40318266D02*
X154735899Y-40280171D01*
X154735899Y-40280171D02*
X154926375Y-40280171D01*
X154926375Y-40280171D02*
X155002565Y-40318266D01*
X155002565Y-40318266D02*
X155040661Y-40356361D01*
X155040661Y-40356361D02*
X155078756Y-40432552D01*
X155078756Y-40432552D02*
X155078756Y-40661123D01*
X155078756Y-40661123D02*
X155040661Y-40737314D01*
X155040661Y-40737314D02*
X155002565Y-40775409D01*
X175058905Y-41499218D02*
X174258905Y-41499218D01*
X174258905Y-41499218D02*
X174258905Y-41308742D01*
X174258905Y-41308742D02*
X174297000Y-41194456D01*
X174297000Y-41194456D02*
X174373190Y-41118266D01*
X174373190Y-41118266D02*
X174449381Y-41080171D01*
X174449381Y-41080171D02*
X174601762Y-41042075D01*
X174601762Y-41042075D02*
X174716048Y-41042075D01*
X174716048Y-41042075D02*
X174868429Y-41080171D01*
X174868429Y-41080171D02*
X174944619Y-41118266D01*
X174944619Y-41118266D02*
X175020810Y-41194456D01*
X175020810Y-41194456D02*
X175058905Y-41308742D01*
X175058905Y-41308742D02*
X175058905Y-41499218D01*
X174525571Y-40356361D02*
X175058905Y-40356361D01*
X174220810Y-40546837D02*
X174792238Y-40737314D01*
X174792238Y-40737314D02*
X174792238Y-40242075D01*
X157933062Y-27817805D02*
X157133062Y-27817805D01*
X157133062Y-27817805D02*
X157133062Y-27627329D01*
X157133062Y-27627329D02*
X157171157Y-27513043D01*
X157171157Y-27513043D02*
X157247347Y-27436853D01*
X157247347Y-27436853D02*
X157323538Y-27398758D01*
X157323538Y-27398758D02*
X157475919Y-27360662D01*
X157475919Y-27360662D02*
X157590205Y-27360662D01*
X157590205Y-27360662D02*
X157742586Y-27398758D01*
X157742586Y-27398758D02*
X157818776Y-27436853D01*
X157818776Y-27436853D02*
X157894967Y-27513043D01*
X157894967Y-27513043D02*
X157933062Y-27627329D01*
X157933062Y-27627329D02*
X157933062Y-27817805D01*
X157133062Y-26636853D02*
X157133062Y-27017805D01*
X157133062Y-27017805D02*
X157514014Y-27055901D01*
X157514014Y-27055901D02*
X157475919Y-27017805D01*
X157475919Y-27017805D02*
X157437824Y-26941615D01*
X157437824Y-26941615D02*
X157437824Y-26751139D01*
X157437824Y-26751139D02*
X157475919Y-26674948D01*
X157475919Y-26674948D02*
X157514014Y-26636853D01*
X157514014Y-26636853D02*
X157590205Y-26598758D01*
X157590205Y-26598758D02*
X157780681Y-26598758D01*
X157780681Y-26598758D02*
X157856871Y-26636853D01*
X157856871Y-26636853D02*
X157894967Y-26674948D01*
X157894967Y-26674948D02*
X157933062Y-26751139D01*
X157933062Y-26751139D02*
X157933062Y-26941615D01*
X157933062Y-26941615D02*
X157894967Y-27017805D01*
X157894967Y-27017805D02*
X157856871Y-27055901D01*
X175058905Y-27817805D02*
X174258905Y-27817805D01*
X174258905Y-27817805D02*
X174258905Y-27627329D01*
X174258905Y-27627329D02*
X174297000Y-27513043D01*
X174297000Y-27513043D02*
X174373190Y-27436853D01*
X174373190Y-27436853D02*
X174449381Y-27398758D01*
X174449381Y-27398758D02*
X174601762Y-27360662D01*
X174601762Y-27360662D02*
X174716048Y-27360662D01*
X174716048Y-27360662D02*
X174868429Y-27398758D01*
X174868429Y-27398758D02*
X174944619Y-27436853D01*
X174944619Y-27436853D02*
X175020810Y-27513043D01*
X175020810Y-27513043D02*
X175058905Y-27627329D01*
X175058905Y-27627329D02*
X175058905Y-27817805D01*
X174258905Y-26674948D02*
X174258905Y-26827329D01*
X174258905Y-26827329D02*
X174297000Y-26903520D01*
X174297000Y-26903520D02*
X174335095Y-26941615D01*
X174335095Y-26941615D02*
X174449381Y-27017805D01*
X174449381Y-27017805D02*
X174601762Y-27055901D01*
X174601762Y-27055901D02*
X174906524Y-27055901D01*
X174906524Y-27055901D02*
X174982714Y-27017805D01*
X174982714Y-27017805D02*
X175020810Y-26979710D01*
X175020810Y-26979710D02*
X175058905Y-26903520D01*
X175058905Y-26903520D02*
X175058905Y-26751139D01*
X175058905Y-26751139D02*
X175020810Y-26674948D01*
X175020810Y-26674948D02*
X174982714Y-26636853D01*
X174982714Y-26636853D02*
X174906524Y-26598758D01*
X174906524Y-26598758D02*
X174716048Y-26598758D01*
X174716048Y-26598758D02*
X174639857Y-26636853D01*
X174639857Y-26636853D02*
X174601762Y-26674948D01*
X174601762Y-26674948D02*
X174563667Y-26751139D01*
X174563667Y-26751139D02*
X174563667Y-26903520D01*
X174563667Y-26903520D02*
X174601762Y-26979710D01*
X174601762Y-26979710D02*
X174639857Y-27017805D01*
X174639857Y-27017805D02*
X174716048Y-27055901D01*
X157933062Y-41499218D02*
X157133062Y-41499218D01*
X157133062Y-41499218D02*
X157133062Y-41308742D01*
X157133062Y-41308742D02*
X157171157Y-41194456D01*
X157171157Y-41194456D02*
X157247347Y-41118266D01*
X157247347Y-41118266D02*
X157323538Y-41080171D01*
X157323538Y-41080171D02*
X157475919Y-41042075D01*
X157475919Y-41042075D02*
X157590205Y-41042075D01*
X157590205Y-41042075D02*
X157742586Y-41080171D01*
X157742586Y-41080171D02*
X157818776Y-41118266D01*
X157818776Y-41118266D02*
X157894967Y-41194456D01*
X157894967Y-41194456D02*
X157933062Y-41308742D01*
X157933062Y-41308742D02*
X157933062Y-41499218D01*
X157133062Y-40775409D02*
X157133062Y-40242075D01*
X157133062Y-40242075D02*
X157933062Y-40584933D01*
X160787368Y-27817805D02*
X159987368Y-27817805D01*
X159987368Y-27817805D02*
X159987368Y-27627329D01*
X159987368Y-27627329D02*
X160025463Y-27513043D01*
X160025463Y-27513043D02*
X160101653Y-27436853D01*
X160101653Y-27436853D02*
X160177844Y-27398758D01*
X160177844Y-27398758D02*
X160330225Y-27360662D01*
X160330225Y-27360662D02*
X160444511Y-27360662D01*
X160444511Y-27360662D02*
X160596892Y-27398758D01*
X160596892Y-27398758D02*
X160673082Y-27436853D01*
X160673082Y-27436853D02*
X160749273Y-27513043D01*
X160749273Y-27513043D02*
X160787368Y-27627329D01*
X160787368Y-27627329D02*
X160787368Y-27817805D01*
X160330225Y-26903520D02*
X160292130Y-26979710D01*
X160292130Y-26979710D02*
X160254034Y-27017805D01*
X160254034Y-27017805D02*
X160177844Y-27055901D01*
X160177844Y-27055901D02*
X160139749Y-27055901D01*
X160139749Y-27055901D02*
X160063558Y-27017805D01*
X160063558Y-27017805D02*
X160025463Y-26979710D01*
X160025463Y-26979710D02*
X159987368Y-26903520D01*
X159987368Y-26903520D02*
X159987368Y-26751139D01*
X159987368Y-26751139D02*
X160025463Y-26674948D01*
X160025463Y-26674948D02*
X160063558Y-26636853D01*
X160063558Y-26636853D02*
X160139749Y-26598758D01*
X160139749Y-26598758D02*
X160177844Y-26598758D01*
X160177844Y-26598758D02*
X160254034Y-26636853D01*
X160254034Y-26636853D02*
X160292130Y-26674948D01*
X160292130Y-26674948D02*
X160330225Y-26751139D01*
X160330225Y-26751139D02*
X160330225Y-26903520D01*
X160330225Y-26903520D02*
X160368320Y-26979710D01*
X160368320Y-26979710D02*
X160406415Y-27017805D01*
X160406415Y-27017805D02*
X160482606Y-27055901D01*
X160482606Y-27055901D02*
X160634987Y-27055901D01*
X160634987Y-27055901D02*
X160711177Y-27017805D01*
X160711177Y-27017805D02*
X160749273Y-26979710D01*
X160749273Y-26979710D02*
X160787368Y-26903520D01*
X160787368Y-26903520D02*
X160787368Y-26751139D01*
X160787368Y-26751139D02*
X160749273Y-26674948D01*
X160749273Y-26674948D02*
X160711177Y-26636853D01*
X160711177Y-26636853D02*
X160634987Y-26598758D01*
X160634987Y-26598758D02*
X160482606Y-26598758D01*
X160482606Y-26598758D02*
X160406415Y-26636853D01*
X160406415Y-26636853D02*
X160368320Y-26674948D01*
X160368320Y-26674948D02*
X160330225Y-26751139D01*
X172204592Y-27817805D02*
X171404592Y-27817805D01*
X171404592Y-27817805D02*
X171404592Y-27627329D01*
X171404592Y-27627329D02*
X171442687Y-27513043D01*
X171442687Y-27513043D02*
X171518877Y-27436853D01*
X171518877Y-27436853D02*
X171595068Y-27398758D01*
X171595068Y-27398758D02*
X171747449Y-27360662D01*
X171747449Y-27360662D02*
X171861735Y-27360662D01*
X171861735Y-27360662D02*
X172014116Y-27398758D01*
X172014116Y-27398758D02*
X172090306Y-27436853D01*
X172090306Y-27436853D02*
X172166497Y-27513043D01*
X172166497Y-27513043D02*
X172204592Y-27627329D01*
X172204592Y-27627329D02*
X172204592Y-27817805D01*
X172204592Y-26979710D02*
X172204592Y-26827329D01*
X172204592Y-26827329D02*
X172166497Y-26751139D01*
X172166497Y-26751139D02*
X172128401Y-26713043D01*
X172128401Y-26713043D02*
X172014116Y-26636853D01*
X172014116Y-26636853D02*
X171861735Y-26598758D01*
X171861735Y-26598758D02*
X171556973Y-26598758D01*
X171556973Y-26598758D02*
X171480782Y-26636853D01*
X171480782Y-26636853D02*
X171442687Y-26674948D01*
X171442687Y-26674948D02*
X171404592Y-26751139D01*
X171404592Y-26751139D02*
X171404592Y-26903520D01*
X171404592Y-26903520D02*
X171442687Y-26979710D01*
X171442687Y-26979710D02*
X171480782Y-27017805D01*
X171480782Y-27017805D02*
X171556973Y-27055901D01*
X171556973Y-27055901D02*
X171747449Y-27055901D01*
X171747449Y-27055901D02*
X171823639Y-27017805D01*
X171823639Y-27017805D02*
X171861735Y-26979710D01*
X171861735Y-26979710D02*
X171899830Y-26903520D01*
X171899830Y-26903520D02*
X171899830Y-26751139D01*
X171899830Y-26751139D02*
X171861735Y-26674948D01*
X171861735Y-26674948D02*
X171823639Y-26636853D01*
X171823639Y-26636853D02*
X171747449Y-26598758D01*
X160787368Y-41880171D02*
X159987368Y-41880171D01*
X159987368Y-41880171D02*
X159987368Y-41689695D01*
X159987368Y-41689695D02*
X160025463Y-41575409D01*
X160025463Y-41575409D02*
X160101653Y-41499219D01*
X160101653Y-41499219D02*
X160177844Y-41461124D01*
X160177844Y-41461124D02*
X160330225Y-41423028D01*
X160330225Y-41423028D02*
X160444511Y-41423028D01*
X160444511Y-41423028D02*
X160596892Y-41461124D01*
X160596892Y-41461124D02*
X160673082Y-41499219D01*
X160673082Y-41499219D02*
X160749273Y-41575409D01*
X160749273Y-41575409D02*
X160787368Y-41689695D01*
X160787368Y-41689695D02*
X160787368Y-41880171D01*
X160787368Y-40661124D02*
X160787368Y-41118267D01*
X160787368Y-40889695D02*
X159987368Y-40889695D01*
X159987368Y-40889695D02*
X160101653Y-40965886D01*
X160101653Y-40965886D02*
X160177844Y-41042076D01*
X160177844Y-41042076D02*
X160215939Y-41118267D01*
X159987368Y-40165885D02*
X159987368Y-40089695D01*
X159987368Y-40089695D02*
X160025463Y-40013504D01*
X160025463Y-40013504D02*
X160063558Y-39975409D01*
X160063558Y-39975409D02*
X160139749Y-39937314D01*
X160139749Y-39937314D02*
X160292130Y-39899219D01*
X160292130Y-39899219D02*
X160482606Y-39899219D01*
X160482606Y-39899219D02*
X160634987Y-39937314D01*
X160634987Y-39937314D02*
X160711177Y-39975409D01*
X160711177Y-39975409D02*
X160749273Y-40013504D01*
X160749273Y-40013504D02*
X160787368Y-40089695D01*
X160787368Y-40089695D02*
X160787368Y-40165885D01*
X160787368Y-40165885D02*
X160749273Y-40242076D01*
X160749273Y-40242076D02*
X160711177Y-40280171D01*
X160711177Y-40280171D02*
X160634987Y-40318266D01*
X160634987Y-40318266D02*
X160482606Y-40356362D01*
X160482606Y-40356362D02*
X160292130Y-40356362D01*
X160292130Y-40356362D02*
X160139749Y-40318266D01*
X160139749Y-40318266D02*
X160063558Y-40280171D01*
X160063558Y-40280171D02*
X160025463Y-40242076D01*
X160025463Y-40242076D02*
X159987368Y-40165885D01*
X172204592Y-41880171D02*
X171404592Y-41880171D01*
X171404592Y-41880171D02*
X171404592Y-41689695D01*
X171404592Y-41689695D02*
X171442687Y-41575409D01*
X171442687Y-41575409D02*
X171518877Y-41499219D01*
X171518877Y-41499219D02*
X171595068Y-41461124D01*
X171595068Y-41461124D02*
X171747449Y-41423028D01*
X171747449Y-41423028D02*
X171861735Y-41423028D01*
X171861735Y-41423028D02*
X172014116Y-41461124D01*
X172014116Y-41461124D02*
X172090306Y-41499219D01*
X172090306Y-41499219D02*
X172166497Y-41575409D01*
X172166497Y-41575409D02*
X172204592Y-41689695D01*
X172204592Y-41689695D02*
X172204592Y-41880171D01*
X172204592Y-40661124D02*
X172204592Y-41118267D01*
X172204592Y-40889695D02*
X171404592Y-40889695D01*
X171404592Y-40889695D02*
X171518877Y-40965886D01*
X171518877Y-40965886D02*
X171595068Y-41042076D01*
X171595068Y-41042076D02*
X171633163Y-41118267D01*
X172204592Y-39899219D02*
X172204592Y-40356362D01*
X172204592Y-40127790D02*
X171404592Y-40127790D01*
X171404592Y-40127790D02*
X171518877Y-40203981D01*
X171518877Y-40203981D02*
X171595068Y-40280171D01*
X171595068Y-40280171D02*
X171633163Y-40356362D01*
X163641674Y-28198758D02*
X162841674Y-28198758D01*
X162841674Y-28198758D02*
X162841674Y-28008282D01*
X162841674Y-28008282D02*
X162879769Y-27893996D01*
X162879769Y-27893996D02*
X162955959Y-27817806D01*
X162955959Y-27817806D02*
X163032150Y-27779711D01*
X163032150Y-27779711D02*
X163184531Y-27741615D01*
X163184531Y-27741615D02*
X163298817Y-27741615D01*
X163298817Y-27741615D02*
X163451198Y-27779711D01*
X163451198Y-27779711D02*
X163527388Y-27817806D01*
X163527388Y-27817806D02*
X163603579Y-27893996D01*
X163603579Y-27893996D02*
X163641674Y-28008282D01*
X163641674Y-28008282D02*
X163641674Y-28198758D01*
X163641674Y-26979711D02*
X163641674Y-27436854D01*
X163641674Y-27208282D02*
X162841674Y-27208282D01*
X162841674Y-27208282D02*
X162955959Y-27284473D01*
X162955959Y-27284473D02*
X163032150Y-27360663D01*
X163032150Y-27360663D02*
X163070245Y-27436854D01*
X162917864Y-26674949D02*
X162879769Y-26636853D01*
X162879769Y-26636853D02*
X162841674Y-26560663D01*
X162841674Y-26560663D02*
X162841674Y-26370187D01*
X162841674Y-26370187D02*
X162879769Y-26293996D01*
X162879769Y-26293996D02*
X162917864Y-26255901D01*
X162917864Y-26255901D02*
X162994055Y-26217806D01*
X162994055Y-26217806D02*
X163070245Y-26217806D01*
X163070245Y-26217806D02*
X163184531Y-26255901D01*
X163184531Y-26255901D02*
X163641674Y-26713044D01*
X163641674Y-26713044D02*
X163641674Y-26217806D01*
X169350286Y-28198758D02*
X168550286Y-28198758D01*
X168550286Y-28198758D02*
X168550286Y-28008282D01*
X168550286Y-28008282D02*
X168588381Y-27893996D01*
X168588381Y-27893996D02*
X168664571Y-27817806D01*
X168664571Y-27817806D02*
X168740762Y-27779711D01*
X168740762Y-27779711D02*
X168893143Y-27741615D01*
X168893143Y-27741615D02*
X169007429Y-27741615D01*
X169007429Y-27741615D02*
X169159810Y-27779711D01*
X169159810Y-27779711D02*
X169236000Y-27817806D01*
X169236000Y-27817806D02*
X169312191Y-27893996D01*
X169312191Y-27893996D02*
X169350286Y-28008282D01*
X169350286Y-28008282D02*
X169350286Y-28198758D01*
X169350286Y-26979711D02*
X169350286Y-27436854D01*
X169350286Y-27208282D02*
X168550286Y-27208282D01*
X168550286Y-27208282D02*
X168664571Y-27284473D01*
X168664571Y-27284473D02*
X168740762Y-27360663D01*
X168740762Y-27360663D02*
X168778857Y-27436854D01*
X168550286Y-26713044D02*
X168550286Y-26217806D01*
X168550286Y-26217806D02*
X168855048Y-26484472D01*
X168855048Y-26484472D02*
X168855048Y-26370187D01*
X168855048Y-26370187D02*
X168893143Y-26293996D01*
X168893143Y-26293996D02*
X168931238Y-26255901D01*
X168931238Y-26255901D02*
X169007429Y-26217806D01*
X169007429Y-26217806D02*
X169197905Y-26217806D01*
X169197905Y-26217806D02*
X169274095Y-26255901D01*
X169274095Y-26255901D02*
X169312191Y-26293996D01*
X169312191Y-26293996D02*
X169350286Y-26370187D01*
X169350286Y-26370187D02*
X169350286Y-26598758D01*
X169350286Y-26598758D02*
X169312191Y-26674949D01*
X169312191Y-26674949D02*
X169274095Y-26713044D01*
X163641674Y-41880171D02*
X162841674Y-41880171D01*
X162841674Y-41880171D02*
X162841674Y-41689695D01*
X162841674Y-41689695D02*
X162879769Y-41575409D01*
X162879769Y-41575409D02*
X162955959Y-41499219D01*
X162955959Y-41499219D02*
X163032150Y-41461124D01*
X163032150Y-41461124D02*
X163184531Y-41423028D01*
X163184531Y-41423028D02*
X163298817Y-41423028D01*
X163298817Y-41423028D02*
X163451198Y-41461124D01*
X163451198Y-41461124D02*
X163527388Y-41499219D01*
X163527388Y-41499219D02*
X163603579Y-41575409D01*
X163603579Y-41575409D02*
X163641674Y-41689695D01*
X163641674Y-41689695D02*
X163641674Y-41880171D01*
X163641674Y-40661124D02*
X163641674Y-41118267D01*
X163641674Y-40889695D02*
X162841674Y-40889695D01*
X162841674Y-40889695D02*
X162955959Y-40965886D01*
X162955959Y-40965886D02*
X163032150Y-41042076D01*
X163032150Y-41042076D02*
X163070245Y-41118267D01*
X163108340Y-39975409D02*
X163641674Y-39975409D01*
X162803579Y-40165885D02*
X163375007Y-40356362D01*
X163375007Y-40356362D02*
X163375007Y-39861123D01*
X166495980Y-28198758D02*
X165695980Y-28198758D01*
X165695980Y-28198758D02*
X165695980Y-28008282D01*
X165695980Y-28008282D02*
X165734075Y-27893996D01*
X165734075Y-27893996D02*
X165810265Y-27817806D01*
X165810265Y-27817806D02*
X165886456Y-27779711D01*
X165886456Y-27779711D02*
X166038837Y-27741615D01*
X166038837Y-27741615D02*
X166153123Y-27741615D01*
X166153123Y-27741615D02*
X166305504Y-27779711D01*
X166305504Y-27779711D02*
X166381694Y-27817806D01*
X166381694Y-27817806D02*
X166457885Y-27893996D01*
X166457885Y-27893996D02*
X166495980Y-28008282D01*
X166495980Y-28008282D02*
X166495980Y-28198758D01*
X166495980Y-26979711D02*
X166495980Y-27436854D01*
X166495980Y-27208282D02*
X165695980Y-27208282D01*
X165695980Y-27208282D02*
X165810265Y-27284473D01*
X165810265Y-27284473D02*
X165886456Y-27360663D01*
X165886456Y-27360663D02*
X165924551Y-27436854D01*
X165695980Y-26255901D02*
X165695980Y-26636853D01*
X165695980Y-26636853D02*
X166076932Y-26674949D01*
X166076932Y-26674949D02*
X166038837Y-26636853D01*
X166038837Y-26636853D02*
X166000742Y-26560663D01*
X166000742Y-26560663D02*
X166000742Y-26370187D01*
X166000742Y-26370187D02*
X166038837Y-26293996D01*
X166038837Y-26293996D02*
X166076932Y-26255901D01*
X166076932Y-26255901D02*
X166153123Y-26217806D01*
X166153123Y-26217806D02*
X166343599Y-26217806D01*
X166343599Y-26217806D02*
X166419789Y-26255901D01*
X166419789Y-26255901D02*
X166457885Y-26293996D01*
X166457885Y-26293996D02*
X166495980Y-26370187D01*
X166495980Y-26370187D02*
X166495980Y-26560663D01*
X166495980Y-26560663D02*
X166457885Y-26636853D01*
X166457885Y-26636853D02*
X166419789Y-26674949D01*
X166495980Y-41880171D02*
X165695980Y-41880171D01*
X165695980Y-41880171D02*
X165695980Y-41689695D01*
X165695980Y-41689695D02*
X165734075Y-41575409D01*
X165734075Y-41575409D02*
X165810265Y-41499219D01*
X165810265Y-41499219D02*
X165886456Y-41461124D01*
X165886456Y-41461124D02*
X166038837Y-41423028D01*
X166038837Y-41423028D02*
X166153123Y-41423028D01*
X166153123Y-41423028D02*
X166305504Y-41461124D01*
X166305504Y-41461124D02*
X166381694Y-41499219D01*
X166381694Y-41499219D02*
X166457885Y-41575409D01*
X166457885Y-41575409D02*
X166495980Y-41689695D01*
X166495980Y-41689695D02*
X166495980Y-41880171D01*
X166495980Y-40661124D02*
X166495980Y-41118267D01*
X166495980Y-40889695D02*
X165695980Y-40889695D01*
X165695980Y-40889695D02*
X165810265Y-40965886D01*
X165810265Y-40965886D02*
X165886456Y-41042076D01*
X165886456Y-41042076D02*
X165924551Y-41118267D01*
X165695980Y-39975409D02*
X165695980Y-40127790D01*
X165695980Y-40127790D02*
X165734075Y-40203981D01*
X165734075Y-40203981D02*
X165772170Y-40242076D01*
X165772170Y-40242076D02*
X165886456Y-40318266D01*
X165886456Y-40318266D02*
X166038837Y-40356362D01*
X166038837Y-40356362D02*
X166343599Y-40356362D01*
X166343599Y-40356362D02*
X166419789Y-40318266D01*
X166419789Y-40318266D02*
X166457885Y-40280171D01*
X166457885Y-40280171D02*
X166495980Y-40203981D01*
X166495980Y-40203981D02*
X166495980Y-40051600D01*
X166495980Y-40051600D02*
X166457885Y-39975409D01*
X166457885Y-39975409D02*
X166419789Y-39937314D01*
X166419789Y-39937314D02*
X166343599Y-39899219D01*
X166343599Y-39899219D02*
X166153123Y-39899219D01*
X166153123Y-39899219D02*
X166076932Y-39937314D01*
X166076932Y-39937314D02*
X166038837Y-39975409D01*
X166038837Y-39975409D02*
X166000742Y-40051600D01*
X166000742Y-40051600D02*
X166000742Y-40203981D01*
X166000742Y-40203981D02*
X166038837Y-40280171D01*
X166038837Y-40280171D02*
X166076932Y-40318266D01*
X166076932Y-40318266D02*
X166153123Y-40356362D01*
X169350286Y-41880171D02*
X168550286Y-41880171D01*
X168550286Y-41880171D02*
X168550286Y-41689695D01*
X168550286Y-41689695D02*
X168588381Y-41575409D01*
X168588381Y-41575409D02*
X168664571Y-41499219D01*
X168664571Y-41499219D02*
X168740762Y-41461124D01*
X168740762Y-41461124D02*
X168893143Y-41423028D01*
X168893143Y-41423028D02*
X169007429Y-41423028D01*
X169007429Y-41423028D02*
X169159810Y-41461124D01*
X169159810Y-41461124D02*
X169236000Y-41499219D01*
X169236000Y-41499219D02*
X169312191Y-41575409D01*
X169312191Y-41575409D02*
X169350286Y-41689695D01*
X169350286Y-41689695D02*
X169350286Y-41880171D01*
X169350286Y-40661124D02*
X169350286Y-41118267D01*
X169350286Y-40889695D02*
X168550286Y-40889695D01*
X168550286Y-40889695D02*
X168664571Y-40965886D01*
X168664571Y-40965886D02*
X168740762Y-41042076D01*
X168740762Y-41042076D02*
X168778857Y-41118267D01*
X168550286Y-40394457D02*
X168550286Y-39861123D01*
X168550286Y-39861123D02*
X169350286Y-40203981D01*
D13*
X118006184Y-21921257D02*
X117968088Y-21959353D01*
X117968088Y-21959353D02*
X117853803Y-21997448D01*
X117853803Y-21997448D02*
X117777612Y-21997448D01*
X117777612Y-21997448D02*
X117663326Y-21959353D01*
X117663326Y-21959353D02*
X117587136Y-21883162D01*
X117587136Y-21883162D02*
X117549041Y-21806972D01*
X117549041Y-21806972D02*
X117510945Y-21654591D01*
X117510945Y-21654591D02*
X117510945Y-21540305D01*
X117510945Y-21540305D02*
X117549041Y-21387924D01*
X117549041Y-21387924D02*
X117587136Y-21311733D01*
X117587136Y-21311733D02*
X117663326Y-21235543D01*
X117663326Y-21235543D02*
X117777612Y-21197448D01*
X117777612Y-21197448D02*
X117853803Y-21197448D01*
X117853803Y-21197448D02*
X117968088Y-21235543D01*
X117968088Y-21235543D02*
X118006184Y-21273638D01*
X118768088Y-21997448D02*
X118310945Y-21997448D01*
X118539517Y-21997448D02*
X118539517Y-21197448D01*
X118539517Y-21197448D02*
X118463326Y-21311733D01*
X118463326Y-21311733D02*
X118387136Y-21387924D01*
X118387136Y-21387924D02*
X118310945Y-21426019D01*
X117510944Y-22352641D02*
X117549040Y-22314546D01*
X117549040Y-22314546D02*
X117625230Y-22276451D01*
X117625230Y-22276451D02*
X117815706Y-22276451D01*
X117815706Y-22276451D02*
X117891897Y-22314546D01*
X117891897Y-22314546D02*
X117929992Y-22352641D01*
X117929992Y-22352641D02*
X117968087Y-22428832D01*
X117968087Y-22428832D02*
X117968087Y-22505022D01*
X117968087Y-22505022D02*
X117929992Y-22619308D01*
X117929992Y-22619308D02*
X117472849Y-23076451D01*
X117472849Y-23076451D02*
X117968087Y-23076451D01*
X118272849Y-22352641D02*
X118310945Y-22314546D01*
X118310945Y-22314546D02*
X118387135Y-22276451D01*
X118387135Y-22276451D02*
X118577611Y-22276451D01*
X118577611Y-22276451D02*
X118653802Y-22314546D01*
X118653802Y-22314546D02*
X118691897Y-22352641D01*
X118691897Y-22352641D02*
X118729992Y-22428832D01*
X118729992Y-22428832D02*
X118729992Y-22505022D01*
X118729992Y-22505022D02*
X118691897Y-22619308D01*
X118691897Y-22619308D02*
X118234754Y-23076451D01*
X118234754Y-23076451D02*
X118729992Y-23076451D01*
X119072850Y-22543117D02*
X119072850Y-23343117D01*
X119072850Y-22581213D02*
X119149040Y-22543117D01*
X119149040Y-22543117D02*
X119301421Y-22543117D01*
X119301421Y-22543117D02*
X119377612Y-22581213D01*
X119377612Y-22581213D02*
X119415707Y-22619308D01*
X119415707Y-22619308D02*
X119453802Y-22695498D01*
X119453802Y-22695498D02*
X119453802Y-22924070D01*
X119453802Y-22924070D02*
X119415707Y-23000260D01*
X119415707Y-23000260D02*
X119377612Y-23038356D01*
X119377612Y-23038356D02*
X119301421Y-23076451D01*
X119301421Y-23076451D02*
X119149040Y-23076451D01*
X119149040Y-23076451D02*
X119072850Y-23038356D01*
X111829822Y-21921257D02*
X111791726Y-21959353D01*
X111791726Y-21959353D02*
X111677441Y-21997448D01*
X111677441Y-21997448D02*
X111601250Y-21997448D01*
X111601250Y-21997448D02*
X111486964Y-21959353D01*
X111486964Y-21959353D02*
X111410774Y-21883162D01*
X111410774Y-21883162D02*
X111372679Y-21806972D01*
X111372679Y-21806972D02*
X111334583Y-21654591D01*
X111334583Y-21654591D02*
X111334583Y-21540305D01*
X111334583Y-21540305D02*
X111372679Y-21387924D01*
X111372679Y-21387924D02*
X111410774Y-21311733D01*
X111410774Y-21311733D02*
X111486964Y-21235543D01*
X111486964Y-21235543D02*
X111601250Y-21197448D01*
X111601250Y-21197448D02*
X111677441Y-21197448D01*
X111677441Y-21197448D02*
X111791726Y-21235543D01*
X111791726Y-21235543D02*
X111829822Y-21273638D01*
X112134583Y-21273638D02*
X112172679Y-21235543D01*
X112172679Y-21235543D02*
X112248869Y-21197448D01*
X112248869Y-21197448D02*
X112439345Y-21197448D01*
X112439345Y-21197448D02*
X112515536Y-21235543D01*
X112515536Y-21235543D02*
X112553631Y-21273638D01*
X112553631Y-21273638D02*
X112591726Y-21349829D01*
X112591726Y-21349829D02*
X112591726Y-21426019D01*
X112591726Y-21426019D02*
X112553631Y-21540305D01*
X112553631Y-21540305D02*
X112096488Y-21997448D01*
X112096488Y-21997448D02*
X112591726Y-21997448D01*
X111334582Y-22352641D02*
X111372678Y-22314546D01*
X111372678Y-22314546D02*
X111448868Y-22276451D01*
X111448868Y-22276451D02*
X111639344Y-22276451D01*
X111639344Y-22276451D02*
X111715535Y-22314546D01*
X111715535Y-22314546D02*
X111753630Y-22352641D01*
X111753630Y-22352641D02*
X111791725Y-22428832D01*
X111791725Y-22428832D02*
X111791725Y-22505022D01*
X111791725Y-22505022D02*
X111753630Y-22619308D01*
X111753630Y-22619308D02*
X111296487Y-23076451D01*
X111296487Y-23076451D02*
X111791725Y-23076451D01*
X112096487Y-22352641D02*
X112134583Y-22314546D01*
X112134583Y-22314546D02*
X112210773Y-22276451D01*
X112210773Y-22276451D02*
X112401249Y-22276451D01*
X112401249Y-22276451D02*
X112477440Y-22314546D01*
X112477440Y-22314546D02*
X112515535Y-22352641D01*
X112515535Y-22352641D02*
X112553630Y-22428832D01*
X112553630Y-22428832D02*
X112553630Y-22505022D01*
X112553630Y-22505022D02*
X112515535Y-22619308D01*
X112515535Y-22619308D02*
X112058392Y-23076451D01*
X112058392Y-23076451D02*
X112553630Y-23076451D01*
X112896488Y-22543117D02*
X112896488Y-23343117D01*
X112896488Y-22581213D02*
X112972678Y-22543117D01*
X112972678Y-22543117D02*
X113125059Y-22543117D01*
X113125059Y-22543117D02*
X113201250Y-22581213D01*
X113201250Y-22581213D02*
X113239345Y-22619308D01*
X113239345Y-22619308D02*
X113277440Y-22695498D01*
X113277440Y-22695498D02*
X113277440Y-22924070D01*
X113277440Y-22924070D02*
X113239345Y-23000260D01*
X113239345Y-23000260D02*
X113201250Y-23038356D01*
X113201250Y-23038356D02*
X113125059Y-23076451D01*
X113125059Y-23076451D02*
X112972678Y-23076451D01*
X112972678Y-23076451D02*
X112896488Y-23038356D01*
D11*
X119572146Y-16300257D02*
X119524527Y-16347877D01*
X119524527Y-16347877D02*
X119381670Y-16395496D01*
X119381670Y-16395496D02*
X119286432Y-16395496D01*
X119286432Y-16395496D02*
X119143575Y-16347877D01*
X119143575Y-16347877D02*
X119048337Y-16252638D01*
X119048337Y-16252638D02*
X119000718Y-16157400D01*
X119000718Y-16157400D02*
X118953099Y-15966924D01*
X118953099Y-15966924D02*
X118953099Y-15824067D01*
X118953099Y-15824067D02*
X119000718Y-15633591D01*
X119000718Y-15633591D02*
X119048337Y-15538353D01*
X119048337Y-15538353D02*
X119143575Y-15443115D01*
X119143575Y-15443115D02*
X119286432Y-15395496D01*
X119286432Y-15395496D02*
X119381670Y-15395496D01*
X119381670Y-15395496D02*
X119524527Y-15443115D01*
X119524527Y-15443115D02*
X119572146Y-15490734D01*
X119905480Y-15395496D02*
X120524527Y-15395496D01*
X120524527Y-15395496D02*
X120191194Y-15776448D01*
X120191194Y-15776448D02*
X120334051Y-15776448D01*
X120334051Y-15776448D02*
X120429289Y-15824067D01*
X120429289Y-15824067D02*
X120476908Y-15871686D01*
X120476908Y-15871686D02*
X120524527Y-15966924D01*
X120524527Y-15966924D02*
X120524527Y-16205019D01*
X120524527Y-16205019D02*
X120476908Y-16300257D01*
X120476908Y-16300257D02*
X120429289Y-16347877D01*
X120429289Y-16347877D02*
X120334051Y-16395496D01*
X120334051Y-16395496D02*
X120048337Y-16395496D01*
X120048337Y-16395496D02*
X119953099Y-16347877D01*
X119953099Y-16347877D02*
X119905480Y-16300257D01*
D13*
X124275077Y-29789770D02*
X124236981Y-29827866D01*
X124236981Y-29827866D02*
X124122696Y-29865961D01*
X124122696Y-29865961D02*
X124046505Y-29865961D01*
X124046505Y-29865961D02*
X123932219Y-29827866D01*
X123932219Y-29827866D02*
X123856029Y-29751675D01*
X123856029Y-29751675D02*
X123817934Y-29675485D01*
X123817934Y-29675485D02*
X123779838Y-29523104D01*
X123779838Y-29523104D02*
X123779838Y-29408818D01*
X123779838Y-29408818D02*
X123817934Y-29256437D01*
X123817934Y-29256437D02*
X123856029Y-29180246D01*
X123856029Y-29180246D02*
X123932219Y-29104056D01*
X123932219Y-29104056D02*
X124046505Y-29065961D01*
X124046505Y-29065961D02*
X124122696Y-29065961D01*
X124122696Y-29065961D02*
X124236981Y-29104056D01*
X124236981Y-29104056D02*
X124275077Y-29142151D01*
X124960791Y-29332627D02*
X124960791Y-29865961D01*
X124770315Y-29027866D02*
X124579838Y-29599294D01*
X124579838Y-29599294D02*
X125075077Y-29599294D01*
X127793900Y-29154012D02*
X127870090Y-29154012D01*
X127870090Y-29154012D02*
X127946281Y-29192107D01*
X127946281Y-29192107D02*
X127984376Y-29230202D01*
X127984376Y-29230202D02*
X128022471Y-29306393D01*
X128022471Y-29306393D02*
X128060566Y-29458774D01*
X128060566Y-29458774D02*
X128060566Y-29649250D01*
X128060566Y-29649250D02*
X128022471Y-29801631D01*
X128022471Y-29801631D02*
X127984376Y-29877821D01*
X127984376Y-29877821D02*
X127946281Y-29915917D01*
X127946281Y-29915917D02*
X127870090Y-29954012D01*
X127870090Y-29954012D02*
X127793900Y-29954012D01*
X127793900Y-29954012D02*
X127717709Y-29915917D01*
X127717709Y-29915917D02*
X127679614Y-29877821D01*
X127679614Y-29877821D02*
X127641519Y-29801631D01*
X127641519Y-29801631D02*
X127603423Y-29649250D01*
X127603423Y-29649250D02*
X127603423Y-29458774D01*
X127603423Y-29458774D02*
X127641519Y-29306393D01*
X127641519Y-29306393D02*
X127679614Y-29230202D01*
X127679614Y-29230202D02*
X127717709Y-29192107D01*
X127717709Y-29192107D02*
X127793900Y-29154012D01*
X128403424Y-29877821D02*
X128441519Y-29915917D01*
X128441519Y-29915917D02*
X128403424Y-29954012D01*
X128403424Y-29954012D02*
X128365328Y-29915917D01*
X128365328Y-29915917D02*
X128403424Y-29877821D01*
X128403424Y-29877821D02*
X128403424Y-29954012D01*
X129203423Y-29954012D02*
X128746280Y-29954012D01*
X128974852Y-29954012D02*
X128974852Y-29154012D01*
X128974852Y-29154012D02*
X128898661Y-29268297D01*
X128898661Y-29268297D02*
X128822471Y-29344488D01*
X128822471Y-29344488D02*
X128746280Y-29382583D01*
X129889138Y-29420678D02*
X129889138Y-29954012D01*
X129546281Y-29420678D02*
X129546281Y-29839726D01*
X129546281Y-29839726D02*
X129584376Y-29915917D01*
X129584376Y-29915917D02*
X129660566Y-29954012D01*
X129660566Y-29954012D02*
X129774852Y-29954012D01*
X129774852Y-29954012D02*
X129851043Y-29915917D01*
X129851043Y-29915917D02*
X129889138Y-29877821D01*
X109314572Y-33569266D02*
X109276476Y-33607362D01*
X109276476Y-33607362D02*
X109162191Y-33645457D01*
X109162191Y-33645457D02*
X109086000Y-33645457D01*
X109086000Y-33645457D02*
X108971714Y-33607362D01*
X108971714Y-33607362D02*
X108895524Y-33531171D01*
X108895524Y-33531171D02*
X108857429Y-33454981D01*
X108857429Y-33454981D02*
X108819333Y-33302600D01*
X108819333Y-33302600D02*
X108819333Y-33188314D01*
X108819333Y-33188314D02*
X108857429Y-33035933D01*
X108857429Y-33035933D02*
X108895524Y-32959742D01*
X108895524Y-32959742D02*
X108971714Y-32883552D01*
X108971714Y-32883552D02*
X109086000Y-32845457D01*
X109086000Y-32845457D02*
X109162191Y-32845457D01*
X109162191Y-32845457D02*
X109276476Y-32883552D01*
X109276476Y-32883552D02*
X109314572Y-32921647D01*
X110038381Y-32845457D02*
X109657429Y-32845457D01*
X109657429Y-32845457D02*
X109619333Y-33226409D01*
X109619333Y-33226409D02*
X109657429Y-33188314D01*
X109657429Y-33188314D02*
X109733619Y-33150219D01*
X109733619Y-33150219D02*
X109924095Y-33150219D01*
X109924095Y-33150219D02*
X110000286Y-33188314D01*
X110000286Y-33188314D02*
X110038381Y-33226409D01*
X110038381Y-33226409D02*
X110076476Y-33302600D01*
X110076476Y-33302600D02*
X110076476Y-33493076D01*
X110076476Y-33493076D02*
X110038381Y-33569266D01*
X110038381Y-33569266D02*
X110000286Y-33607362D01*
X110000286Y-33607362D02*
X109924095Y-33645457D01*
X109924095Y-33645457D02*
X109733619Y-33645457D01*
X109733619Y-33645457D02*
X109657429Y-33607362D01*
X109657429Y-33607362D02*
X109619333Y-33569266D01*
X108960307Y-38346444D02*
X108960307Y-38270254D01*
X108960307Y-38270254D02*
X108998402Y-38194063D01*
X108998402Y-38194063D02*
X109036497Y-38155968D01*
X109036497Y-38155968D02*
X109112688Y-38117873D01*
X109112688Y-38117873D02*
X109265069Y-38079778D01*
X109265069Y-38079778D02*
X109455545Y-38079778D01*
X109455545Y-38079778D02*
X109607926Y-38117873D01*
X109607926Y-38117873D02*
X109684116Y-38155968D01*
X109684116Y-38155968D02*
X109722212Y-38194063D01*
X109722212Y-38194063D02*
X109760307Y-38270254D01*
X109760307Y-38270254D02*
X109760307Y-38346444D01*
X109760307Y-38346444D02*
X109722212Y-38422635D01*
X109722212Y-38422635D02*
X109684116Y-38460730D01*
X109684116Y-38460730D02*
X109607926Y-38498825D01*
X109607926Y-38498825D02*
X109455545Y-38536921D01*
X109455545Y-38536921D02*
X109265069Y-38536921D01*
X109265069Y-38536921D02*
X109112688Y-38498825D01*
X109112688Y-38498825D02*
X109036497Y-38460730D01*
X109036497Y-38460730D02*
X108998402Y-38422635D01*
X108998402Y-38422635D02*
X108960307Y-38346444D01*
X109684116Y-37736920D02*
X109722212Y-37698825D01*
X109722212Y-37698825D02*
X109760307Y-37736920D01*
X109760307Y-37736920D02*
X109722212Y-37775016D01*
X109722212Y-37775016D02*
X109684116Y-37736920D01*
X109684116Y-37736920D02*
X109760307Y-37736920D01*
X109760307Y-36936921D02*
X109760307Y-37394064D01*
X109760307Y-37165492D02*
X108960307Y-37165492D01*
X108960307Y-37165492D02*
X109074592Y-37241683D01*
X109074592Y-37241683D02*
X109150783Y-37317873D01*
X109150783Y-37317873D02*
X109188878Y-37394064D01*
X109226973Y-36251206D02*
X109760307Y-36251206D01*
X109226973Y-36594063D02*
X109646021Y-36594063D01*
X109646021Y-36594063D02*
X109722212Y-36555968D01*
X109722212Y-36555968D02*
X109760307Y-36479778D01*
X109760307Y-36479778D02*
X109760307Y-36365492D01*
X109760307Y-36365492D02*
X109722212Y-36289301D01*
X109722212Y-36289301D02*
X109684116Y-36251206D01*
X109852859Y-15495262D02*
X109471907Y-15495262D01*
X109471907Y-15495262D02*
X109433811Y-15876214D01*
X109433811Y-15876214D02*
X109471907Y-15838119D01*
X109471907Y-15838119D02*
X109548097Y-15800024D01*
X109548097Y-15800024D02*
X109738573Y-15800024D01*
X109738573Y-15800024D02*
X109814764Y-15838119D01*
X109814764Y-15838119D02*
X109852859Y-15876214D01*
X109852859Y-15876214D02*
X109890954Y-15952405D01*
X109890954Y-15952405D02*
X109890954Y-16142881D01*
X109890954Y-16142881D02*
X109852859Y-16219071D01*
X109852859Y-16219071D02*
X109814764Y-16257167D01*
X109814764Y-16257167D02*
X109738573Y-16295262D01*
X109738573Y-16295262D02*
X109548097Y-16295262D01*
X109548097Y-16295262D02*
X109471907Y-16257167D01*
X109471907Y-16257167D02*
X109433811Y-16219071D01*
X110386193Y-15495262D02*
X110462383Y-15495262D01*
X110462383Y-15495262D02*
X110538574Y-15533357D01*
X110538574Y-15533357D02*
X110576669Y-15571452D01*
X110576669Y-15571452D02*
X110614764Y-15647643D01*
X110614764Y-15647643D02*
X110652859Y-15800024D01*
X110652859Y-15800024D02*
X110652859Y-15990500D01*
X110652859Y-15990500D02*
X110614764Y-16142881D01*
X110614764Y-16142881D02*
X110576669Y-16219071D01*
X110576669Y-16219071D02*
X110538574Y-16257167D01*
X110538574Y-16257167D02*
X110462383Y-16295262D01*
X110462383Y-16295262D02*
X110386193Y-16295262D01*
X110386193Y-16295262D02*
X110310002Y-16257167D01*
X110310002Y-16257167D02*
X110271907Y-16219071D01*
X110271907Y-16219071D02*
X110233812Y-16142881D01*
X110233812Y-16142881D02*
X110195716Y-15990500D01*
X110195716Y-15990500D02*
X110195716Y-15800024D01*
X110195716Y-15800024D02*
X110233812Y-15647643D01*
X110233812Y-15647643D02*
X110271907Y-15571452D01*
X110271907Y-15571452D02*
X110310002Y-15533357D01*
X110310002Y-15533357D02*
X110386193Y-15495262D01*
X111148098Y-15495262D02*
X111224288Y-15495262D01*
X111224288Y-15495262D02*
X111300479Y-15533357D01*
X111300479Y-15533357D02*
X111338574Y-15571452D01*
X111338574Y-15571452D02*
X111376669Y-15647643D01*
X111376669Y-15647643D02*
X111414764Y-15800024D01*
X111414764Y-15800024D02*
X111414764Y-15990500D01*
X111414764Y-15990500D02*
X111376669Y-16142881D01*
X111376669Y-16142881D02*
X111338574Y-16219071D01*
X111338574Y-16219071D02*
X111300479Y-16257167D01*
X111300479Y-16257167D02*
X111224288Y-16295262D01*
X111224288Y-16295262D02*
X111148098Y-16295262D01*
X111148098Y-16295262D02*
X111071907Y-16257167D01*
X111071907Y-16257167D02*
X111033812Y-16219071D01*
X111033812Y-16219071D02*
X110995717Y-16142881D01*
X110995717Y-16142881D02*
X110957621Y-15990500D01*
X110957621Y-15990500D02*
X110957621Y-15800024D01*
X110957621Y-15800024D02*
X110995717Y-15647643D01*
X110995717Y-15647643D02*
X111033812Y-15571452D01*
X111033812Y-15571452D02*
X111071907Y-15533357D01*
X111071907Y-15533357D02*
X111148098Y-15495262D01*
X111757622Y-16295262D02*
X111757622Y-15761928D01*
X111757622Y-15838119D02*
X111795717Y-15800024D01*
X111795717Y-15800024D02*
X111871907Y-15761928D01*
X111871907Y-15761928D02*
X111986193Y-15761928D01*
X111986193Y-15761928D02*
X112062384Y-15800024D01*
X112062384Y-15800024D02*
X112100479Y-15876214D01*
X112100479Y-15876214D02*
X112100479Y-16295262D01*
X112100479Y-15876214D02*
X112138574Y-15800024D01*
X112138574Y-15800024D02*
X112214765Y-15761928D01*
X112214765Y-15761928D02*
X112329050Y-15761928D01*
X112329050Y-15761928D02*
X112405241Y-15800024D01*
X112405241Y-15800024D02*
X112443336Y-15876214D01*
X112443336Y-15876214D02*
X112443336Y-16295262D01*
X112786193Y-16066690D02*
X113167146Y-16066690D01*
X112710003Y-16295262D02*
X112976670Y-15495262D01*
X112976670Y-15495262D02*
X113243336Y-16295262D01*
D11*
X115453502Y-20532016D02*
X115453502Y-20865349D01*
X115977312Y-20865349D02*
X114977312Y-20865349D01*
X114977312Y-20865349D02*
X114977312Y-20389159D01*
X114977312Y-20008206D02*
X115786835Y-20008206D01*
X115786835Y-20008206D02*
X115882073Y-19960587D01*
X115882073Y-19960587D02*
X115929693Y-19912968D01*
X115929693Y-19912968D02*
X115977312Y-19817730D01*
X115977312Y-19817730D02*
X115977312Y-19627254D01*
X115977312Y-19627254D02*
X115929693Y-19532016D01*
X115929693Y-19532016D02*
X115882073Y-19484397D01*
X115882073Y-19484397D02*
X115786835Y-19436778D01*
X115786835Y-19436778D02*
X114977312Y-19436778D01*
X115929693Y-19008206D02*
X115977312Y-18865349D01*
X115977312Y-18865349D02*
X115977312Y-18627254D01*
X115977312Y-18627254D02*
X115929693Y-18532016D01*
X115929693Y-18532016D02*
X115882073Y-18484397D01*
X115882073Y-18484397D02*
X115786835Y-18436778D01*
X115786835Y-18436778D02*
X115691597Y-18436778D01*
X115691597Y-18436778D02*
X115596359Y-18484397D01*
X115596359Y-18484397D02*
X115548740Y-18532016D01*
X115548740Y-18532016D02*
X115501121Y-18627254D01*
X115501121Y-18627254D02*
X115453502Y-18817730D01*
X115453502Y-18817730D02*
X115405883Y-18912968D01*
X115405883Y-18912968D02*
X115358264Y-18960587D01*
X115358264Y-18960587D02*
X115263026Y-19008206D01*
X115263026Y-19008206D02*
X115167788Y-19008206D01*
X115167788Y-19008206D02*
X115072550Y-18960587D01*
X115072550Y-18960587D02*
X115024931Y-18912968D01*
X115024931Y-18912968D02*
X114977312Y-18817730D01*
X114977312Y-18817730D02*
X114977312Y-18579635D01*
X114977312Y-18579635D02*
X115024931Y-18436778D01*
X115453502Y-18008206D02*
X115453502Y-17674873D01*
X115977312Y-17532016D02*
X115977312Y-18008206D01*
X115977312Y-18008206D02*
X114977312Y-18008206D01*
X114977312Y-18008206D02*
X114977312Y-17532016D01*
D13*
X148526843Y-24511675D02*
X148260176Y-24130722D01*
X148069700Y-24511675D02*
X148069700Y-23711675D01*
X148069700Y-23711675D02*
X148374462Y-23711675D01*
X148374462Y-23711675D02*
X148450652Y-23749770D01*
X148450652Y-23749770D02*
X148488747Y-23787865D01*
X148488747Y-23787865D02*
X148526843Y-23864056D01*
X148526843Y-23864056D02*
X148526843Y-23978341D01*
X148526843Y-23978341D02*
X148488747Y-24054532D01*
X148488747Y-24054532D02*
X148450652Y-24092627D01*
X148450652Y-24092627D02*
X148374462Y-24130722D01*
X148374462Y-24130722D02*
X148069700Y-24130722D01*
X149288747Y-24511675D02*
X148831604Y-24511675D01*
X149060176Y-24511675D02*
X149060176Y-23711675D01*
X149060176Y-23711675D02*
X148983985Y-23825960D01*
X148983985Y-23825960D02*
X148907795Y-23902151D01*
X148907795Y-23902151D02*
X148831604Y-23940246D01*
X143523967Y-24564731D02*
X143066824Y-24564731D01*
X143295396Y-24564731D02*
X143295396Y-23764731D01*
X143295396Y-23764731D02*
X143219205Y-23879016D01*
X143219205Y-23879016D02*
X143143015Y-23955207D01*
X143143015Y-23955207D02*
X143066824Y-23993302D01*
X143866825Y-24488540D02*
X143904920Y-24526636D01*
X143904920Y-24526636D02*
X143866825Y-24564731D01*
X143866825Y-24564731D02*
X143828729Y-24526636D01*
X143828729Y-24526636D02*
X143866825Y-24488540D01*
X143866825Y-24488540D02*
X143866825Y-24564731D01*
X144628729Y-23764731D02*
X144247777Y-23764731D01*
X144247777Y-23764731D02*
X144209681Y-24145683D01*
X144209681Y-24145683D02*
X144247777Y-24107588D01*
X144247777Y-24107588D02*
X144323967Y-24069493D01*
X144323967Y-24069493D02*
X144514443Y-24069493D01*
X144514443Y-24069493D02*
X144590634Y-24107588D01*
X144590634Y-24107588D02*
X144628729Y-24145683D01*
X144628729Y-24145683D02*
X144666824Y-24221874D01*
X144666824Y-24221874D02*
X144666824Y-24412350D01*
X144666824Y-24412350D02*
X144628729Y-24488540D01*
X144628729Y-24488540D02*
X144590634Y-24526636D01*
X144590634Y-24526636D02*
X144514443Y-24564731D01*
X144514443Y-24564731D02*
X144323967Y-24564731D01*
X144323967Y-24564731D02*
X144247777Y-24526636D01*
X144247777Y-24526636D02*
X144209681Y-24488540D01*
X145009682Y-24564731D02*
X145009682Y-23764731D01*
X145466825Y-24564731D02*
X145123967Y-24107588D01*
X145466825Y-23764731D02*
X145009682Y-24221874D01*
X124275077Y-27188818D02*
X124008410Y-26807865D01*
X123817934Y-27188818D02*
X123817934Y-26388818D01*
X123817934Y-26388818D02*
X124122696Y-26388818D01*
X124122696Y-26388818D02*
X124198886Y-26426913D01*
X124198886Y-26426913D02*
X124236981Y-26465008D01*
X124236981Y-26465008D02*
X124275077Y-26541199D01*
X124275077Y-26541199D02*
X124275077Y-26655484D01*
X124275077Y-26655484D02*
X124236981Y-26731675D01*
X124236981Y-26731675D02*
X124198886Y-26769770D01*
X124198886Y-26769770D02*
X124122696Y-26807865D01*
X124122696Y-26807865D02*
X123817934Y-26807865D01*
X124579838Y-26465008D02*
X124617934Y-26426913D01*
X124617934Y-26426913D02*
X124694124Y-26388818D01*
X124694124Y-26388818D02*
X124884600Y-26388818D01*
X124884600Y-26388818D02*
X124960791Y-26426913D01*
X124960791Y-26426913D02*
X124998886Y-26465008D01*
X124998886Y-26465008D02*
X125036981Y-26541199D01*
X125036981Y-26541199D02*
X125036981Y-26617389D01*
X125036981Y-26617389D02*
X124998886Y-26731675D01*
X124998886Y-26731675D02*
X124541743Y-27188818D01*
X124541743Y-27188818D02*
X125036981Y-27188818D01*
X127984376Y-26388818D02*
X127603424Y-26388818D01*
X127603424Y-26388818D02*
X127565328Y-26769770D01*
X127565328Y-26769770D02*
X127603424Y-26731675D01*
X127603424Y-26731675D02*
X127679614Y-26693580D01*
X127679614Y-26693580D02*
X127870090Y-26693580D01*
X127870090Y-26693580D02*
X127946281Y-26731675D01*
X127946281Y-26731675D02*
X127984376Y-26769770D01*
X127984376Y-26769770D02*
X128022471Y-26845961D01*
X128022471Y-26845961D02*
X128022471Y-27036437D01*
X128022471Y-27036437D02*
X127984376Y-27112627D01*
X127984376Y-27112627D02*
X127946281Y-27150723D01*
X127946281Y-27150723D02*
X127870090Y-27188818D01*
X127870090Y-27188818D02*
X127679614Y-27188818D01*
X127679614Y-27188818D02*
X127603424Y-27150723D01*
X127603424Y-27150723D02*
X127565328Y-27112627D01*
X128365329Y-27112627D02*
X128403424Y-27150723D01*
X128403424Y-27150723D02*
X128365329Y-27188818D01*
X128365329Y-27188818D02*
X128327233Y-27150723D01*
X128327233Y-27150723D02*
X128365329Y-27112627D01*
X128365329Y-27112627D02*
X128365329Y-27188818D01*
X129165328Y-27188818D02*
X128708185Y-27188818D01*
X128936757Y-27188818D02*
X128936757Y-26388818D01*
X128936757Y-26388818D02*
X128860566Y-26503103D01*
X128860566Y-26503103D02*
X128784376Y-26579294D01*
X128784376Y-26579294D02*
X128708185Y-26617389D01*
X129508186Y-27188818D02*
X129508186Y-26388818D01*
X129965329Y-27188818D02*
X129622471Y-26731675D01*
X129965329Y-26388818D02*
X129508186Y-26845961D01*
X132096534Y-25299070D02*
X131829867Y-24918117D01*
X131639391Y-25299070D02*
X131639391Y-24499070D01*
X131639391Y-24499070D02*
X131944153Y-24499070D01*
X131944153Y-24499070D02*
X132020343Y-24537165D01*
X132020343Y-24537165D02*
X132058438Y-24575260D01*
X132058438Y-24575260D02*
X132096534Y-24651451D01*
X132096534Y-24651451D02*
X132096534Y-24765736D01*
X132096534Y-24765736D02*
X132058438Y-24841927D01*
X132058438Y-24841927D02*
X132020343Y-24880022D01*
X132020343Y-24880022D02*
X131944153Y-24918117D01*
X131944153Y-24918117D02*
X131639391Y-24918117D01*
X132363200Y-24499070D02*
X132858438Y-24499070D01*
X132858438Y-24499070D02*
X132591772Y-24803832D01*
X132591772Y-24803832D02*
X132706057Y-24803832D01*
X132706057Y-24803832D02*
X132782248Y-24841927D01*
X132782248Y-24841927D02*
X132820343Y-24880022D01*
X132820343Y-24880022D02*
X132858438Y-24956213D01*
X132858438Y-24956213D02*
X132858438Y-25146689D01*
X132858438Y-25146689D02*
X132820343Y-25222879D01*
X132820343Y-25222879D02*
X132782248Y-25260975D01*
X132782248Y-25260975D02*
X132706057Y-25299070D01*
X132706057Y-25299070D02*
X132477486Y-25299070D01*
X132477486Y-25299070D02*
X132401295Y-25260975D01*
X132401295Y-25260975D02*
X132363200Y-25222879D01*
X135858326Y-23834620D02*
X135477374Y-23834620D01*
X135477374Y-23834620D02*
X135439278Y-24215572D01*
X135439278Y-24215572D02*
X135477374Y-24177477D01*
X135477374Y-24177477D02*
X135553564Y-24139382D01*
X135553564Y-24139382D02*
X135744040Y-24139382D01*
X135744040Y-24139382D02*
X135820231Y-24177477D01*
X135820231Y-24177477D02*
X135858326Y-24215572D01*
X135858326Y-24215572D02*
X135896421Y-24291763D01*
X135896421Y-24291763D02*
X135896421Y-24482239D01*
X135896421Y-24482239D02*
X135858326Y-24558429D01*
X135858326Y-24558429D02*
X135820231Y-24596525D01*
X135820231Y-24596525D02*
X135744040Y-24634620D01*
X135744040Y-24634620D02*
X135553564Y-24634620D01*
X135553564Y-24634620D02*
X135477374Y-24596525D01*
X135477374Y-24596525D02*
X135439278Y-24558429D01*
X136239279Y-24558429D02*
X136277374Y-24596525D01*
X136277374Y-24596525D02*
X136239279Y-24634620D01*
X136239279Y-24634620D02*
X136201183Y-24596525D01*
X136201183Y-24596525D02*
X136239279Y-24558429D01*
X136239279Y-24558429D02*
X136239279Y-24634620D01*
X137039278Y-24634620D02*
X136582135Y-24634620D01*
X136810707Y-24634620D02*
X136810707Y-23834620D01*
X136810707Y-23834620D02*
X136734516Y-23948905D01*
X136734516Y-23948905D02*
X136658326Y-24025096D01*
X136658326Y-24025096D02*
X136582135Y-24063191D01*
X137382136Y-24634620D02*
X137382136Y-23834620D01*
X137839279Y-24634620D02*
X137496421Y-24177477D01*
X137839279Y-23834620D02*
X137382136Y-24291763D01*
X148526843Y-29849024D02*
X148260176Y-29468071D01*
X148069700Y-29849024D02*
X148069700Y-29049024D01*
X148069700Y-29049024D02*
X148374462Y-29049024D01*
X148374462Y-29049024D02*
X148450652Y-29087119D01*
X148450652Y-29087119D02*
X148488747Y-29125214D01*
X148488747Y-29125214D02*
X148526843Y-29201405D01*
X148526843Y-29201405D02*
X148526843Y-29315690D01*
X148526843Y-29315690D02*
X148488747Y-29391881D01*
X148488747Y-29391881D02*
X148450652Y-29429976D01*
X148450652Y-29429976D02*
X148374462Y-29468071D01*
X148374462Y-29468071D02*
X148069700Y-29468071D01*
X149212557Y-29315690D02*
X149212557Y-29849024D01*
X149022081Y-29010929D02*
X148831604Y-29582357D01*
X148831604Y-29582357D02*
X149326843Y-29582357D01*
X143222640Y-29066522D02*
X143755974Y-29066522D01*
X143755974Y-29066522D02*
X143413116Y-29866522D01*
X144441688Y-29066522D02*
X144060736Y-29066522D01*
X144060736Y-29066522D02*
X144022640Y-29447474D01*
X144022640Y-29447474D02*
X144060736Y-29409379D01*
X144060736Y-29409379D02*
X144136926Y-29371284D01*
X144136926Y-29371284D02*
X144327402Y-29371284D01*
X144327402Y-29371284D02*
X144403593Y-29409379D01*
X144403593Y-29409379D02*
X144441688Y-29447474D01*
X144441688Y-29447474D02*
X144479783Y-29523665D01*
X144479783Y-29523665D02*
X144479783Y-29714141D01*
X144479783Y-29714141D02*
X144441688Y-29790331D01*
X144441688Y-29790331D02*
X144403593Y-29828427D01*
X144403593Y-29828427D02*
X144327402Y-29866522D01*
X144327402Y-29866522D02*
X144136926Y-29866522D01*
X144136926Y-29866522D02*
X144060736Y-29828427D01*
X144060736Y-29828427D02*
X144022640Y-29790331D01*
X145279784Y-29866522D02*
X145013117Y-29485569D01*
X144822641Y-29866522D02*
X144822641Y-29066522D01*
X144822641Y-29066522D02*
X145127403Y-29066522D01*
X145127403Y-29066522D02*
X145203593Y-29104617D01*
X145203593Y-29104617D02*
X145241688Y-29142712D01*
X145241688Y-29142712D02*
X145279784Y-29218903D01*
X145279784Y-29218903D02*
X145279784Y-29333188D01*
X145279784Y-29333188D02*
X145241688Y-29409379D01*
X145241688Y-29409379D02*
X145203593Y-29447474D01*
X145203593Y-29447474D02*
X145127403Y-29485569D01*
X145127403Y-29485569D02*
X144822641Y-29485569D01*
X148526843Y-27136325D02*
X148260176Y-26755372D01*
X148069700Y-27136325D02*
X148069700Y-26336325D01*
X148069700Y-26336325D02*
X148374462Y-26336325D01*
X148374462Y-26336325D02*
X148450652Y-26374420D01*
X148450652Y-26374420D02*
X148488747Y-26412515D01*
X148488747Y-26412515D02*
X148526843Y-26488706D01*
X148526843Y-26488706D02*
X148526843Y-26602991D01*
X148526843Y-26602991D02*
X148488747Y-26679182D01*
X148488747Y-26679182D02*
X148450652Y-26717277D01*
X148450652Y-26717277D02*
X148374462Y-26755372D01*
X148374462Y-26755372D02*
X148069700Y-26755372D01*
X149250652Y-26336325D02*
X148869700Y-26336325D01*
X148869700Y-26336325D02*
X148831604Y-26717277D01*
X148831604Y-26717277D02*
X148869700Y-26679182D01*
X148869700Y-26679182D02*
X148945890Y-26641087D01*
X148945890Y-26641087D02*
X149136366Y-26641087D01*
X149136366Y-26641087D02*
X149212557Y-26679182D01*
X149212557Y-26679182D02*
X149250652Y-26717277D01*
X149250652Y-26717277D02*
X149288747Y-26793468D01*
X149288747Y-26793468D02*
X149288747Y-26983944D01*
X149288747Y-26983944D02*
X149250652Y-27060134D01*
X149250652Y-27060134D02*
X149212557Y-27098230D01*
X149212557Y-27098230D02*
X149136366Y-27136325D01*
X149136366Y-27136325D02*
X148945890Y-27136325D01*
X148945890Y-27136325D02*
X148869700Y-27098230D01*
X148869700Y-27098230D02*
X148831604Y-27060134D01*
X143222640Y-26371830D02*
X143755974Y-26371830D01*
X143755974Y-26371830D02*
X143413116Y-27171830D01*
X144441688Y-26371830D02*
X144060736Y-26371830D01*
X144060736Y-26371830D02*
X144022640Y-26752782D01*
X144022640Y-26752782D02*
X144060736Y-26714687D01*
X144060736Y-26714687D02*
X144136926Y-26676592D01*
X144136926Y-26676592D02*
X144327402Y-26676592D01*
X144327402Y-26676592D02*
X144403593Y-26714687D01*
X144403593Y-26714687D02*
X144441688Y-26752782D01*
X144441688Y-26752782D02*
X144479783Y-26828973D01*
X144479783Y-26828973D02*
X144479783Y-27019449D01*
X144479783Y-27019449D02*
X144441688Y-27095639D01*
X144441688Y-27095639D02*
X144403593Y-27133735D01*
X144403593Y-27133735D02*
X144327402Y-27171830D01*
X144327402Y-27171830D02*
X144136926Y-27171830D01*
X144136926Y-27171830D02*
X144060736Y-27133735D01*
X144060736Y-27133735D02*
X144022640Y-27095639D01*
X145279784Y-27171830D02*
X145013117Y-26790877D01*
X144822641Y-27171830D02*
X144822641Y-26371830D01*
X144822641Y-26371830D02*
X145127403Y-26371830D01*
X145127403Y-26371830D02*
X145203593Y-26409925D01*
X145203593Y-26409925D02*
X145241688Y-26448020D01*
X145241688Y-26448020D02*
X145279784Y-26524211D01*
X145279784Y-26524211D02*
X145279784Y-26638496D01*
X145279784Y-26638496D02*
X145241688Y-26714687D01*
X145241688Y-26714687D02*
X145203593Y-26752782D01*
X145203593Y-26752782D02*
X145127403Y-26790877D01*
X145127403Y-26790877D02*
X144822641Y-26790877D01*
X149576703Y-35115261D02*
X149310036Y-34734308D01*
X149119560Y-35115261D02*
X149119560Y-34315261D01*
X149119560Y-34315261D02*
X149424322Y-34315261D01*
X149424322Y-34315261D02*
X149500512Y-34353356D01*
X149500512Y-34353356D02*
X149538607Y-34391451D01*
X149538607Y-34391451D02*
X149576703Y-34467642D01*
X149576703Y-34467642D02*
X149576703Y-34581927D01*
X149576703Y-34581927D02*
X149538607Y-34658118D01*
X149538607Y-34658118D02*
X149500512Y-34696213D01*
X149500512Y-34696213D02*
X149424322Y-34734308D01*
X149424322Y-34734308D02*
X149119560Y-34734308D01*
X150262417Y-34315261D02*
X150110036Y-34315261D01*
X150110036Y-34315261D02*
X150033845Y-34353356D01*
X150033845Y-34353356D02*
X149995750Y-34391451D01*
X149995750Y-34391451D02*
X149919560Y-34505737D01*
X149919560Y-34505737D02*
X149881464Y-34658118D01*
X149881464Y-34658118D02*
X149881464Y-34962880D01*
X149881464Y-34962880D02*
X149919560Y-35039070D01*
X149919560Y-35039070D02*
X149957655Y-35077166D01*
X149957655Y-35077166D02*
X150033845Y-35115261D01*
X150033845Y-35115261D02*
X150186226Y-35115261D01*
X150186226Y-35115261D02*
X150262417Y-35077166D01*
X150262417Y-35077166D02*
X150300512Y-35039070D01*
X150300512Y-35039070D02*
X150338607Y-34962880D01*
X150338607Y-34962880D02*
X150338607Y-34772404D01*
X150338607Y-34772404D02*
X150300512Y-34696213D01*
X150300512Y-34696213D02*
X150262417Y-34658118D01*
X150262417Y-34658118D02*
X150186226Y-34620023D01*
X150186226Y-34620023D02*
X150033845Y-34620023D01*
X150033845Y-34620023D02*
X149957655Y-34658118D01*
X149957655Y-34658118D02*
X149919560Y-34696213D01*
X149919560Y-34696213D02*
X149881464Y-34772404D01*
X148290169Y-35302747D02*
X148290169Y-35759890D01*
X148290169Y-35531318D02*
X147490169Y-35531318D01*
X147490169Y-35531318D02*
X147604454Y-35607509D01*
X147604454Y-35607509D02*
X147680645Y-35683699D01*
X147680645Y-35683699D02*
X147718740Y-35759890D01*
X147490169Y-34807508D02*
X147490169Y-34731318D01*
X147490169Y-34731318D02*
X147528264Y-34655127D01*
X147528264Y-34655127D02*
X147566359Y-34617032D01*
X147566359Y-34617032D02*
X147642550Y-34578937D01*
X147642550Y-34578937D02*
X147794931Y-34540842D01*
X147794931Y-34540842D02*
X147985407Y-34540842D01*
X147985407Y-34540842D02*
X148137788Y-34578937D01*
X148137788Y-34578937D02*
X148213978Y-34617032D01*
X148213978Y-34617032D02*
X148252074Y-34655127D01*
X148252074Y-34655127D02*
X148290169Y-34731318D01*
X148290169Y-34731318D02*
X148290169Y-34807508D01*
X148290169Y-34807508D02*
X148252074Y-34883699D01*
X148252074Y-34883699D02*
X148213978Y-34921794D01*
X148213978Y-34921794D02*
X148137788Y-34959889D01*
X148137788Y-34959889D02*
X147985407Y-34997985D01*
X147985407Y-34997985D02*
X147794931Y-34997985D01*
X147794931Y-34997985D02*
X147642550Y-34959889D01*
X147642550Y-34959889D02*
X147566359Y-34921794D01*
X147566359Y-34921794D02*
X147528264Y-34883699D01*
X147528264Y-34883699D02*
X147490169Y-34807508D01*
X148290169Y-34197984D02*
X147490169Y-34197984D01*
X148290169Y-33740841D02*
X147833026Y-34083699D01*
X147490169Y-33740841D02*
X147947312Y-34197984D01*
D11*
X136373921Y-15607312D02*
X136040588Y-15131121D01*
X135802493Y-15607312D02*
X135802493Y-14607312D01*
X135802493Y-14607312D02*
X136183445Y-14607312D01*
X136183445Y-14607312D02*
X136278683Y-14654931D01*
X136278683Y-14654931D02*
X136326302Y-14702550D01*
X136326302Y-14702550D02*
X136373921Y-14797788D01*
X136373921Y-14797788D02*
X136373921Y-14940645D01*
X136373921Y-14940645D02*
X136326302Y-15035883D01*
X136326302Y-15035883D02*
X136278683Y-15083502D01*
X136278683Y-15083502D02*
X136183445Y-15131121D01*
X136183445Y-15131121D02*
X135802493Y-15131121D01*
X136802493Y-15083502D02*
X137135826Y-15083502D01*
X137278683Y-15607312D02*
X136802493Y-15607312D01*
X136802493Y-15607312D02*
X136802493Y-14607312D01*
X136802493Y-14607312D02*
X137278683Y-14607312D01*
X137659636Y-15559693D02*
X137802493Y-15607312D01*
X137802493Y-15607312D02*
X138040588Y-15607312D01*
X138040588Y-15607312D02*
X138135826Y-15559693D01*
X138135826Y-15559693D02*
X138183445Y-15512073D01*
X138183445Y-15512073D02*
X138231064Y-15416835D01*
X138231064Y-15416835D02*
X138231064Y-15321597D01*
X138231064Y-15321597D02*
X138183445Y-15226359D01*
X138183445Y-15226359D02*
X138135826Y-15178740D01*
X138135826Y-15178740D02*
X138040588Y-15131121D01*
X138040588Y-15131121D02*
X137850112Y-15083502D01*
X137850112Y-15083502D02*
X137754874Y-15035883D01*
X137754874Y-15035883D02*
X137707255Y-14988264D01*
X137707255Y-14988264D02*
X137659636Y-14893026D01*
X137659636Y-14893026D02*
X137659636Y-14797788D01*
X137659636Y-14797788D02*
X137707255Y-14702550D01*
X137707255Y-14702550D02*
X137754874Y-14654931D01*
X137754874Y-14654931D02*
X137850112Y-14607312D01*
X137850112Y-14607312D02*
X138088207Y-14607312D01*
X138088207Y-14607312D02*
X138231064Y-14654931D01*
X138659636Y-15083502D02*
X138992969Y-15083502D01*
X139135826Y-15607312D02*
X138659636Y-15607312D01*
X138659636Y-15607312D02*
X138659636Y-14607312D01*
X138659636Y-14607312D02*
X139135826Y-14607312D01*
X139421541Y-14607312D02*
X139992969Y-14607312D01*
X139707255Y-15607312D02*
X139707255Y-14607312D01*
X140850112Y-15607312D02*
X140278684Y-15607312D01*
X140564398Y-15607312D02*
X140564398Y-14607312D01*
X140564398Y-14607312D02*
X140469160Y-14750169D01*
X140469160Y-14750169D02*
X140373922Y-14845407D01*
X140373922Y-14845407D02*
X140278684Y-14893026D01*
X125639398Y-24957312D02*
X125639398Y-25766835D01*
X125639398Y-25766835D02*
X125687017Y-25862073D01*
X125687017Y-25862073D02*
X125734636Y-25909693D01*
X125734636Y-25909693D02*
X125829874Y-25957312D01*
X125829874Y-25957312D02*
X126020350Y-25957312D01*
X126020350Y-25957312D02*
X126115588Y-25909693D01*
X126115588Y-25909693D02*
X126163207Y-25862073D01*
X126163207Y-25862073D02*
X126210826Y-25766835D01*
X126210826Y-25766835D02*
X126210826Y-24957312D01*
X126639398Y-25909693D02*
X126782255Y-25957312D01*
X126782255Y-25957312D02*
X127020350Y-25957312D01*
X127020350Y-25957312D02*
X127115588Y-25909693D01*
X127115588Y-25909693D02*
X127163207Y-25862073D01*
X127163207Y-25862073D02*
X127210826Y-25766835D01*
X127210826Y-25766835D02*
X127210826Y-25671597D01*
X127210826Y-25671597D02*
X127163207Y-25576359D01*
X127163207Y-25576359D02*
X127115588Y-25528740D01*
X127115588Y-25528740D02*
X127020350Y-25481121D01*
X127020350Y-25481121D02*
X126829874Y-25433502D01*
X126829874Y-25433502D02*
X126734636Y-25385883D01*
X126734636Y-25385883D02*
X126687017Y-25338264D01*
X126687017Y-25338264D02*
X126639398Y-25243026D01*
X126639398Y-25243026D02*
X126639398Y-25147788D01*
X126639398Y-25147788D02*
X126687017Y-25052550D01*
X126687017Y-25052550D02*
X126734636Y-25004931D01*
X126734636Y-25004931D02*
X126829874Y-24957312D01*
X126829874Y-24957312D02*
X127067969Y-24957312D01*
X127067969Y-24957312D02*
X127210826Y-25004931D01*
X127972731Y-25433502D02*
X128115588Y-25481121D01*
X128115588Y-25481121D02*
X128163207Y-25528740D01*
X128163207Y-25528740D02*
X128210826Y-25623978D01*
X128210826Y-25623978D02*
X128210826Y-25766835D01*
X128210826Y-25766835D02*
X128163207Y-25862073D01*
X128163207Y-25862073D02*
X128115588Y-25909693D01*
X128115588Y-25909693D02*
X128020350Y-25957312D01*
X128020350Y-25957312D02*
X127639398Y-25957312D01*
X127639398Y-25957312D02*
X127639398Y-24957312D01*
X127639398Y-24957312D02*
X127972731Y-24957312D01*
X127972731Y-24957312D02*
X128067969Y-25004931D01*
X128067969Y-25004931D02*
X128115588Y-25052550D01*
X128115588Y-25052550D02*
X128163207Y-25147788D01*
X128163207Y-25147788D02*
X128163207Y-25243026D01*
X128163207Y-25243026D02*
X128115588Y-25338264D01*
X128115588Y-25338264D02*
X128067969Y-25385883D01*
X128067969Y-25385883D02*
X127972731Y-25433502D01*
X127972731Y-25433502D02*
X127639398Y-25433502D01*
X129163207Y-25957312D02*
X128591779Y-25957312D01*
X128877493Y-25957312D02*
X128877493Y-24957312D01*
X128877493Y-24957312D02*
X128782255Y-25100169D01*
X128782255Y-25100169D02*
X128687017Y-25195407D01*
X128687017Y-25195407D02*
X128591779Y-25243026D01*
X116707914Y-28237897D02*
X116707914Y-28714088D01*
X116374581Y-27714088D02*
X116707914Y-28237897D01*
X116707914Y-28237897D02*
X117041247Y-27714088D01*
X117898390Y-28714088D02*
X117326962Y-28714088D01*
X117612676Y-28714088D02*
X117612676Y-27714088D01*
X117612676Y-27714088D02*
X117517438Y-27856945D01*
X117517438Y-27856945D02*
X117422200Y-27952183D01*
X117422200Y-27952183D02*
X117326962Y-27999802D01*
X146469159Y-15083502D02*
X146612016Y-15131121D01*
X146612016Y-15131121D02*
X146659635Y-15178740D01*
X146659635Y-15178740D02*
X146707254Y-15273978D01*
X146707254Y-15273978D02*
X146707254Y-15416835D01*
X146707254Y-15416835D02*
X146659635Y-15512073D01*
X146659635Y-15512073D02*
X146612016Y-15559693D01*
X146612016Y-15559693D02*
X146516778Y-15607312D01*
X146516778Y-15607312D02*
X146135826Y-15607312D01*
X146135826Y-15607312D02*
X146135826Y-14607312D01*
X146135826Y-14607312D02*
X146469159Y-14607312D01*
X146469159Y-14607312D02*
X146564397Y-14654931D01*
X146564397Y-14654931D02*
X146612016Y-14702550D01*
X146612016Y-14702550D02*
X146659635Y-14797788D01*
X146659635Y-14797788D02*
X146659635Y-14893026D01*
X146659635Y-14893026D02*
X146612016Y-14988264D01*
X146612016Y-14988264D02*
X146564397Y-15035883D01*
X146564397Y-15035883D02*
X146469159Y-15083502D01*
X146469159Y-15083502D02*
X146135826Y-15083502D01*
X147326302Y-14607312D02*
X147516778Y-14607312D01*
X147516778Y-14607312D02*
X147612016Y-14654931D01*
X147612016Y-14654931D02*
X147707254Y-14750169D01*
X147707254Y-14750169D02*
X147754873Y-14940645D01*
X147754873Y-14940645D02*
X147754873Y-15273978D01*
X147754873Y-15273978D02*
X147707254Y-15464454D01*
X147707254Y-15464454D02*
X147612016Y-15559693D01*
X147612016Y-15559693D02*
X147516778Y-15607312D01*
X147516778Y-15607312D02*
X147326302Y-15607312D01*
X147326302Y-15607312D02*
X147231064Y-15559693D01*
X147231064Y-15559693D02*
X147135826Y-15464454D01*
X147135826Y-15464454D02*
X147088207Y-15273978D01*
X147088207Y-15273978D02*
X147088207Y-14940645D01*
X147088207Y-14940645D02*
X147135826Y-14750169D01*
X147135826Y-14750169D02*
X147231064Y-14654931D01*
X147231064Y-14654931D02*
X147326302Y-14607312D01*
X148373921Y-14607312D02*
X148564397Y-14607312D01*
X148564397Y-14607312D02*
X148659635Y-14654931D01*
X148659635Y-14654931D02*
X148754873Y-14750169D01*
X148754873Y-14750169D02*
X148802492Y-14940645D01*
X148802492Y-14940645D02*
X148802492Y-15273978D01*
X148802492Y-15273978D02*
X148754873Y-15464454D01*
X148754873Y-15464454D02*
X148659635Y-15559693D01*
X148659635Y-15559693D02*
X148564397Y-15607312D01*
X148564397Y-15607312D02*
X148373921Y-15607312D01*
X148373921Y-15607312D02*
X148278683Y-15559693D01*
X148278683Y-15559693D02*
X148183445Y-15464454D01*
X148183445Y-15464454D02*
X148135826Y-15273978D01*
X148135826Y-15273978D02*
X148135826Y-14940645D01*
X148135826Y-14940645D02*
X148183445Y-14750169D01*
X148183445Y-14750169D02*
X148278683Y-14654931D01*
X148278683Y-14654931D02*
X148373921Y-14607312D01*
X149088207Y-14607312D02*
X149659635Y-14607312D01*
X149373921Y-15607312D02*
X149373921Y-14607312D01*
X150516778Y-15607312D02*
X149945350Y-15607312D01*
X150231064Y-15607312D02*
X150231064Y-14607312D01*
X150231064Y-14607312D02*
X150135826Y-14750169D01*
X150135826Y-14750169D02*
X150040588Y-14845407D01*
X150040588Y-14845407D02*
X149945350Y-14893026D01*
X178174159Y-40212312D02*
X178174159Y-40926597D01*
X178174159Y-40926597D02*
X178126540Y-41069454D01*
X178126540Y-41069454D02*
X178031302Y-41164693D01*
X178031302Y-41164693D02*
X177888445Y-41212312D01*
X177888445Y-41212312D02*
X177793207Y-41212312D01*
X179174159Y-41212312D02*
X178602731Y-41212312D01*
X178888445Y-41212312D02*
X178888445Y-40212312D01*
X178888445Y-40212312D02*
X178793207Y-40355169D01*
X178793207Y-40355169D02*
X178697969Y-40450407D01*
X178697969Y-40450407D02*
X178602731Y-40498026D01*
X170483445Y-32957312D02*
X170007255Y-32957312D01*
X170007255Y-32957312D02*
X170007255Y-31957312D01*
X170816779Y-32433502D02*
X171150112Y-32433502D01*
X171292969Y-32957312D02*
X170816779Y-32957312D01*
X170816779Y-32957312D02*
X170816779Y-31957312D01*
X170816779Y-31957312D02*
X171292969Y-31957312D01*
X171721541Y-32957312D02*
X171721541Y-31957312D01*
X171721541Y-31957312D02*
X171959636Y-31957312D01*
X171959636Y-31957312D02*
X172102493Y-32004931D01*
X172102493Y-32004931D02*
X172197731Y-32100169D01*
X172197731Y-32100169D02*
X172245350Y-32195407D01*
X172245350Y-32195407D02*
X172292969Y-32385883D01*
X172292969Y-32385883D02*
X172292969Y-32528740D01*
X172292969Y-32528740D02*
X172245350Y-32719216D01*
X172245350Y-32719216D02*
X172197731Y-32814454D01*
X172197731Y-32814454D02*
X172102493Y-32909693D01*
X172102493Y-32909693D02*
X171959636Y-32957312D01*
X171959636Y-32957312D02*
X171721541Y-32957312D01*
X173245350Y-32957312D02*
X172673922Y-32957312D01*
X172959636Y-32957312D02*
X172959636Y-31957312D01*
X172959636Y-31957312D02*
X172864398Y-32100169D01*
X172864398Y-32100169D02*
X172769160Y-32195407D01*
X172769160Y-32195407D02*
X172673922Y-32243026D01*
X171635826Y-27137312D02*
X171302493Y-26661121D01*
X171064398Y-27137312D02*
X171064398Y-26137312D01*
X171064398Y-26137312D02*
X171445350Y-26137312D01*
X171445350Y-26137312D02*
X171540588Y-26184931D01*
X171540588Y-26184931D02*
X171588207Y-26232550D01*
X171588207Y-26232550D02*
X171635826Y-26327788D01*
X171635826Y-26327788D02*
X171635826Y-26470645D01*
X171635826Y-26470645D02*
X171588207Y-26565883D01*
X171588207Y-26565883D02*
X171540588Y-26613502D01*
X171540588Y-26613502D02*
X171445350Y-26661121D01*
X171445350Y-26661121D02*
X171064398Y-26661121D01*
X171969160Y-26137312D02*
X172635826Y-26137312D01*
X172635826Y-26137312D02*
X172207255Y-27137312D01*
D10*
X154186461Y-21817330D02*
X155266461Y-21817330D01*
X153716461Y-20797330D02*
X153716461Y-23767330D01*
X154186461Y-22867330D02*
X155266461Y-22867330D01*
X154726461Y-23987330D02*
X154726461Y-22867330D01*
X153716461Y-20787330D02*
X155716461Y-20787330D01*
X153716461Y-23777330D02*
X155706461Y-23777330D01*
X154726461Y-20527330D02*
X154726461Y-21807330D01*
X154726461Y-21917330D02*
X155266461Y-22867330D01*
X154716461Y-21927330D02*
X154186461Y-22837330D01*
X155716461Y-20787330D02*
X155706461Y-23777330D01*
X177020923Y-21817330D02*
X178100923Y-21817330D01*
X177560923Y-21917330D02*
X178100923Y-22867330D01*
X176550923Y-20787330D02*
X178550923Y-20787330D01*
X176550923Y-20797330D02*
X176550923Y-23767330D01*
X176550923Y-23777330D02*
X178540923Y-23777330D01*
X177550923Y-21927330D02*
X177020923Y-22837330D01*
X177560923Y-20527330D02*
X177560923Y-21807330D01*
X178550923Y-20787330D02*
X178540923Y-23777330D01*
X177020923Y-22867330D02*
X178100923Y-22867330D01*
X177560923Y-23987330D02*
X177560923Y-22867330D01*
X154726461Y-34208743D02*
X154726461Y-35488743D01*
X154726461Y-35598743D02*
X155266461Y-36548743D01*
X154186461Y-36548743D02*
X155266461Y-36548743D01*
X153716461Y-34478743D02*
X153716461Y-37448743D01*
X154716461Y-35608743D02*
X154186461Y-36518743D01*
X154186461Y-35498743D02*
X155266461Y-35498743D01*
X153716461Y-37458743D02*
X155706461Y-37458743D01*
X154726461Y-37668743D02*
X154726461Y-36548743D01*
X155716461Y-34468743D02*
X155706461Y-37458743D01*
X153716461Y-34468743D02*
X155716461Y-34468743D01*
X173696610Y-34478743D02*
X173696610Y-37448743D01*
X174166610Y-36548743D02*
X175246610Y-36548743D01*
X174166610Y-35498743D02*
X175246610Y-35498743D01*
X173696610Y-34468743D02*
X175696610Y-34468743D01*
X174706610Y-34208743D02*
X174706610Y-35488743D01*
X174696610Y-35608743D02*
X174166610Y-36518743D01*
X174706610Y-35598743D02*
X175246610Y-36548743D01*
X174706610Y-37668743D02*
X174706610Y-36548743D01*
X175696610Y-34468743D02*
X175686610Y-37458743D01*
X173696610Y-37458743D02*
X175686610Y-37458743D01*
X157580767Y-20527330D02*
X157580767Y-21807330D01*
X157040767Y-21817330D02*
X158120767Y-21817330D01*
X158570767Y-20787330D02*
X158560767Y-23777330D01*
X157570767Y-21927330D02*
X157040767Y-22837330D01*
X157040767Y-22867330D02*
X158120767Y-22867330D01*
X156570767Y-20787330D02*
X158570767Y-20787330D01*
X157580767Y-23987330D02*
X157580767Y-22867330D01*
X156570767Y-23777330D02*
X158560767Y-23777330D01*
X156570767Y-20797330D02*
X156570767Y-23767330D01*
X157580767Y-21917330D02*
X158120767Y-22867330D01*
X173696610Y-23777330D02*
X175686610Y-23777330D01*
X174706610Y-23987330D02*
X174706610Y-22867330D01*
X174166610Y-22867330D02*
X175246610Y-22867330D01*
X173696610Y-20797330D02*
X173696610Y-23767330D01*
X175696610Y-20787330D02*
X175686610Y-23777330D01*
X174166610Y-21817330D02*
X175246610Y-21817330D01*
X174706610Y-21917330D02*
X175246610Y-22867330D01*
X174696610Y-21927330D02*
X174166610Y-22837330D01*
X174706610Y-20527330D02*
X174706610Y-21807330D01*
X173696610Y-20787330D02*
X175696610Y-20787330D01*
X158570767Y-34468743D02*
X158560767Y-37458743D01*
X157580767Y-35598743D02*
X158120767Y-36548743D01*
X157580767Y-37668743D02*
X157580767Y-36548743D01*
X156570767Y-34478743D02*
X156570767Y-37448743D01*
X156570767Y-34468743D02*
X158570767Y-34468743D01*
X157040767Y-36548743D02*
X158120767Y-36548743D01*
X157040767Y-35498743D02*
X158120767Y-35498743D01*
X156570767Y-37458743D02*
X158560767Y-37458743D01*
X157570767Y-35608743D02*
X157040767Y-36518743D01*
X157580767Y-34208743D02*
X157580767Y-35488743D01*
X161425073Y-20787330D02*
X161415073Y-23777330D01*
X159895073Y-21817330D02*
X160975073Y-21817330D01*
X159425073Y-23777330D02*
X161415073Y-23777330D01*
X160435073Y-23987330D02*
X160435073Y-22867330D01*
X159425073Y-20787330D02*
X161425073Y-20787330D01*
X160435073Y-20527330D02*
X160435073Y-21807330D01*
X160435073Y-21917330D02*
X160975073Y-22867330D01*
X159425073Y-20797330D02*
X159425073Y-23767330D01*
X160425073Y-21927330D02*
X159895073Y-22837330D01*
X159895073Y-22867330D02*
X160975073Y-22867330D01*
X171852297Y-20527330D02*
X171852297Y-21807330D01*
X171842297Y-21927330D02*
X171312297Y-22837330D01*
X171312297Y-21817330D02*
X172392297Y-21817330D01*
X171852297Y-23987330D02*
X171852297Y-22867330D01*
X170842297Y-23777330D02*
X172832297Y-23777330D01*
X170842297Y-20797330D02*
X170842297Y-23767330D01*
X171312297Y-22867330D02*
X172392297Y-22867330D01*
X170842297Y-20787330D02*
X172842297Y-20787330D01*
X172842297Y-20787330D02*
X172832297Y-23777330D01*
X171852297Y-21917330D02*
X172392297Y-22867330D01*
X159425073Y-34478743D02*
X159425073Y-37448743D01*
X159895073Y-35498743D02*
X160975073Y-35498743D01*
X160435073Y-35598743D02*
X160975073Y-36548743D01*
X160435073Y-37668743D02*
X160435073Y-36548743D01*
X160435073Y-34208743D02*
X160435073Y-35488743D01*
X159895073Y-36548743D02*
X160975073Y-36548743D01*
X160425073Y-35608743D02*
X159895073Y-36518743D01*
X161425073Y-34468743D02*
X161415073Y-37458743D01*
X159425073Y-37458743D02*
X161415073Y-37458743D01*
X159425073Y-34468743D02*
X161425073Y-34468743D01*
X170842297Y-34478743D02*
X170842297Y-37448743D01*
X171852297Y-34208743D02*
X171852297Y-35488743D01*
X171312297Y-35498743D02*
X172392297Y-35498743D01*
X170842297Y-34468743D02*
X172842297Y-34468743D01*
X171852297Y-37668743D02*
X171852297Y-36548743D01*
X171852297Y-35598743D02*
X172392297Y-36548743D01*
X172842297Y-34468743D02*
X172832297Y-37458743D01*
X171842297Y-35608743D02*
X171312297Y-36518743D01*
X170842297Y-37458743D02*
X172832297Y-37458743D01*
X171312297Y-36548743D02*
X172392297Y-36548743D01*
X163279379Y-21927330D02*
X162749379Y-22837330D01*
X162749379Y-21817330D02*
X163829379Y-21817330D01*
X163289379Y-20527330D02*
X163289379Y-21807330D01*
X162279379Y-23777330D02*
X164269379Y-23777330D01*
X162279379Y-20797330D02*
X162279379Y-23767330D01*
X162749379Y-22867330D02*
X163829379Y-22867330D01*
X162279379Y-20787330D02*
X164279379Y-20787330D01*
X163289379Y-23987330D02*
X163289379Y-22867330D01*
X164279379Y-20787330D02*
X164269379Y-23777330D01*
X163289379Y-21917330D02*
X163829379Y-22867330D01*
X168987991Y-21927330D02*
X168457991Y-22837330D01*
X167987991Y-23777330D02*
X169977991Y-23777330D01*
X168997991Y-20527330D02*
X168997991Y-21807330D01*
X167987991Y-20787330D02*
X169987991Y-20787330D01*
X167987991Y-20797330D02*
X167987991Y-23767330D01*
X169987991Y-20787330D02*
X169977991Y-23777330D01*
X168457991Y-21817330D02*
X169537991Y-21817330D01*
X168457991Y-22867330D02*
X169537991Y-22867330D01*
X168997991Y-21917330D02*
X169537991Y-22867330D01*
X168997991Y-23987330D02*
X168997991Y-22867330D01*
X162749379Y-36548743D02*
X163829379Y-36548743D01*
X162279379Y-37458743D02*
X164269379Y-37458743D01*
X163289379Y-37668743D02*
X163289379Y-36548743D01*
X163279379Y-35608743D02*
X162749379Y-36518743D01*
X162279379Y-34478743D02*
X162279379Y-37448743D01*
X162749379Y-35498743D02*
X163829379Y-35498743D01*
X163289379Y-35598743D02*
X163829379Y-36548743D01*
X163289379Y-34208743D02*
X163289379Y-35488743D01*
X162279379Y-34468743D02*
X164279379Y-34468743D01*
X164279379Y-34468743D02*
X164269379Y-37458743D01*
X167133685Y-20787330D02*
X167123685Y-23777330D01*
X166143685Y-23987330D02*
X166143685Y-22867330D01*
X165133685Y-20787330D02*
X167133685Y-20787330D01*
X166143685Y-21917330D02*
X166683685Y-22867330D01*
X165133685Y-23777330D02*
X167123685Y-23777330D01*
X165133685Y-20797330D02*
X165133685Y-23767330D01*
X166133685Y-21927330D02*
X165603685Y-22837330D01*
X165603685Y-21817330D02*
X166683685Y-21817330D01*
X166143685Y-20527330D02*
X166143685Y-21807330D01*
X165603685Y-22867330D02*
X166683685Y-22867330D01*
X166133685Y-35608743D02*
X165603685Y-36518743D01*
X166143685Y-37668743D02*
X166143685Y-36548743D01*
X165133685Y-37458743D02*
X167123685Y-37458743D01*
X165603685Y-36548743D02*
X166683685Y-36548743D01*
X165133685Y-34478743D02*
X165133685Y-37448743D01*
X165133685Y-34468743D02*
X167133685Y-34468743D01*
X167133685Y-34468743D02*
X167123685Y-37458743D01*
X166143685Y-34208743D02*
X166143685Y-35488743D01*
X165603685Y-35498743D02*
X166683685Y-35498743D01*
X166143685Y-35598743D02*
X166683685Y-36548743D01*
X167987991Y-37458743D02*
X169977991Y-37458743D01*
X168997991Y-34208743D02*
X168997991Y-35488743D01*
X168997991Y-35598743D02*
X169537991Y-36548743D01*
X168457991Y-36548743D02*
X169537991Y-36548743D01*
X167987991Y-34468743D02*
X169987991Y-34468743D01*
X168457991Y-35498743D02*
X169537991Y-35498743D01*
X169987991Y-34468743D02*
X169977991Y-37458743D01*
X168997991Y-37668743D02*
X168997991Y-36548743D01*
X168987991Y-35608743D02*
X168457991Y-36518743D01*
X167987991Y-34478743D02*
X167987991Y-37448743D01*
X117840101Y-25329709D02*
X119098101Y-25329709D01*
X117840101Y-23489709D02*
X119098101Y-23489709D01*
X114043393Y-25312211D02*
X112785393Y-25312211D01*
X114043393Y-23472211D02*
X112785393Y-23472211D01*
X118793825Y-19130421D02*
X117562825Y-19130421D01*
X118793825Y-19771421D02*
X117726825Y-19771421D01*
X118793825Y-19410421D02*
X117608825Y-19410421D01*
X121710825Y-19050421D02*
X120473825Y-19050421D01*
X120492825Y-20851421D02*
X118774825Y-20851421D01*
X120828825Y-16660620D02*
X120828825Y-17060620D01*
X118793825Y-19090421D02*
X117559825Y-19090421D01*
X121707825Y-19090421D02*
X120473825Y-19090421D01*
X121573825Y-19691421D02*
X120473825Y-19691421D01*
X121071825Y-20451421D02*
X120473825Y-20451421D01*
X118793825Y-19851421D02*
X117763825Y-19851421D01*
X118793825Y-19731421D02*
X117709825Y-19731421D01*
X120297825Y-20931421D02*
X118969825Y-20931421D01*
X121484825Y-19891421D02*
X120473825Y-19891421D01*
X121713825Y-18930421D02*
X120473825Y-18930421D01*
X120937825Y-20571421D02*
X118329825Y-20571421D01*
X121689825Y-19250421D02*
X120473825Y-19250421D01*
X118793825Y-20211421D02*
X117983825Y-20211421D01*
X118793825Y-19570421D02*
X117651825Y-19570421D01*
X121503825Y-19851421D02*
X120473825Y-19851421D01*
X118793825Y-19370421D02*
X117599825Y-19370421D01*
X120984825Y-20531421D02*
X118282825Y-20531421D01*
X121029825Y-20491421D02*
X120473825Y-20491421D01*
X120646825Y-20771421D02*
X118620825Y-20771421D01*
X118793825Y-19971421D02*
X117825825Y-19971421D01*
X118793825Y-19050421D02*
X117556825Y-19050421D01*
X118793825Y-20491421D02*
X118237825Y-20491421D01*
X121713825Y-18970421D02*
X120473825Y-18970421D01*
X121393825Y-20051421D02*
X120473825Y-20051421D01*
X118793825Y-20331421D02*
X118081825Y-20331421D01*
X118793825Y-19610421D02*
X117665825Y-19610421D01*
X121683825Y-19290421D02*
X120473825Y-19290421D01*
X120833825Y-20651421D02*
X118433825Y-20651421D01*
X118793825Y-19250421D02*
X117577825Y-19250421D01*
X118793825Y-20371421D02*
X118117825Y-20371421D01*
X118793825Y-20291421D02*
X118046825Y-20291421D01*
X121111825Y-20411421D02*
X120473825Y-20411421D01*
X120887825Y-20611421D02*
X118379825Y-20611421D01*
X118793825Y-20091421D02*
X117898825Y-20091421D01*
X118793825Y-18930421D02*
X117553825Y-18930421D01*
X118793825Y-19811421D02*
X117744825Y-19811421D01*
X121675825Y-19330421D02*
X120473825Y-19330421D01*
X121313825Y-20171421D02*
X120473825Y-20171421D01*
X118793825Y-20051421D02*
X117873825Y-20051421D01*
X120573825Y-20811421D02*
X118693825Y-20811421D01*
X121700825Y-19170421D02*
X120473825Y-19170421D01*
X118793825Y-20451421D02*
X118195825Y-20451421D01*
X118793825Y-20011421D02*
X117848825Y-20011421D01*
X121441825Y-19971421D02*
X120473825Y-19971421D01*
X120170825Y-20971421D02*
X119096825Y-20971421D01*
X121028825Y-16860620D02*
X120628825Y-16860620D01*
X121463825Y-19931421D02*
X120473825Y-19931421D01*
X118793825Y-19931421D02*
X117803825Y-19931421D01*
X121658825Y-19410421D02*
X120473825Y-19410421D01*
X121649825Y-19450421D02*
X120473825Y-19450421D01*
X121418825Y-20011421D02*
X120473825Y-20011421D01*
X118793825Y-19490421D02*
X117628825Y-19490421D01*
X118793825Y-19651421D02*
X117679825Y-19651421D01*
X121712825Y-19010421D02*
X120473825Y-19010421D01*
X121615825Y-19570421D02*
X120473825Y-19570421D01*
X121341825Y-20131421D02*
X120473825Y-20131421D01*
X121601825Y-19610421D02*
X120473825Y-19610421D01*
X118793825Y-19210421D02*
X117571825Y-19210421D01*
X121185825Y-20331421D02*
X120473825Y-20331421D01*
X118793825Y-19330421D02*
X117591825Y-19330421D01*
X121627825Y-19530421D02*
X120473825Y-19530421D01*
X121220825Y-20291421D02*
X120473825Y-20291421D01*
X118793825Y-19450421D02*
X117617825Y-19450421D01*
X120401825Y-20891421D02*
X118865825Y-20891421D01*
X121587825Y-19651421D02*
X120473825Y-19651421D01*
X118793825Y-20411421D02*
X118155825Y-20411421D01*
X118793825Y-20131421D02*
X117925825Y-20131421D01*
X121368825Y-20091421D02*
X120473825Y-20091421D01*
X118793825Y-19691421D02*
X117693825Y-19691421D01*
X118793825Y-19891421D02*
X117782825Y-19891421D01*
X118793825Y-19170421D02*
X117566825Y-19170421D01*
X121522825Y-19811421D02*
X120473825Y-19811421D01*
X121695825Y-19210421D02*
X120473825Y-19210421D01*
X120775825Y-20691421D02*
X118491825Y-20691421D01*
X120713825Y-20731421D02*
X118553825Y-20731421D01*
X118793825Y-20171421D02*
X117953825Y-20171421D01*
X121252825Y-20251421D02*
X120473825Y-20251421D01*
X121704825Y-19130421D02*
X120473825Y-19130421D01*
X118793825Y-19290421D02*
X117583825Y-19290421D01*
X118793825Y-19010421D02*
X117554825Y-19010421D01*
X121667825Y-19370421D02*
X120473825Y-19370421D01*
X121557825Y-19731421D02*
X120473825Y-19731421D01*
X118793825Y-20251421D02*
X118014825Y-20251421D01*
X121638825Y-19490421D02*
X120473825Y-19490421D01*
X118793825Y-19530421D02*
X117639825Y-19530421D01*
X121540825Y-19771421D02*
X120473825Y-19771421D01*
X118793825Y-18970421D02*
X117553825Y-18970421D01*
X121283825Y-20211421D02*
X120473825Y-20211421D01*
X120003825Y-21011421D02*
X119263825Y-21011421D01*
X121149825Y-20371421D02*
X120473825Y-20371421D01*
X121753825Y-18930421D02*
G75*
G03*
X121753825Y-18930421I-2120000J0D01*
G01*
X131057493Y-30641619D02*
X131057493Y-30626619D01*
X131057493Y-30641619D02*
X126517493Y-30641619D01*
X131057493Y-28501619D02*
X126517493Y-28501619D01*
X131057493Y-28516619D02*
X131057493Y-28501619D01*
X126517493Y-28516619D02*
X126517493Y-28501619D01*
X126517493Y-30641619D02*
X126517493Y-30626619D01*
X110484993Y-39678509D02*
X110469993Y-39678509D01*
X110484993Y-35138509D02*
X110484993Y-39678509D01*
X108359993Y-35138509D02*
X108344993Y-35138509D01*
X108344993Y-35138509D02*
X108344993Y-39678509D01*
X110484993Y-35138509D02*
X110469993Y-35138509D01*
X108359993Y-39678509D02*
X108344993Y-39678509D01*
X134774831Y-29526623D02*
X136054831Y-29526623D01*
X136064831Y-30066623D02*
X136064831Y-28986623D01*
X136174831Y-29536623D02*
X137084831Y-30066623D01*
X136164831Y-29526623D02*
X137114831Y-28986623D01*
X135034831Y-30536623D02*
X135034831Y-28536623D01*
X138234831Y-29526623D02*
X137114831Y-29526623D01*
X135044831Y-30536623D02*
X138014831Y-30536623D01*
X135034831Y-28536623D02*
X138024831Y-28546623D01*
X137114831Y-30066623D02*
X137114831Y-28986623D01*
X138024831Y-30536623D02*
X138024831Y-28546623D01*
X135034831Y-25841931D02*
X138024831Y-25851931D01*
X135034831Y-27841931D02*
X135034831Y-25841931D01*
X136064831Y-27371931D02*
X136064831Y-26291931D01*
X134774831Y-26831931D02*
X136054831Y-26831931D01*
X136164831Y-26831931D02*
X137114831Y-26291931D01*
X136174831Y-26841931D02*
X137084831Y-27371931D01*
X138024831Y-27841931D02*
X138024831Y-25851931D01*
X135044831Y-27841931D02*
X138014831Y-27841931D01*
X138234831Y-26831931D02*
X137114831Y-26831931D01*
X137114831Y-27371931D02*
X137114831Y-26291931D01*
X146163959Y-25067239D02*
X142323959Y-25067239D01*
X146163959Y-23227239D02*
X142323959Y-23227239D01*
X126798077Y-25921931D02*
X130638077Y-25921931D01*
X126798077Y-27761931D02*
X130638077Y-27761931D01*
X134549691Y-25119733D02*
X138389691Y-25119733D01*
X134549691Y-23279733D02*
X138389691Y-23279733D01*
X142323959Y-28564129D02*
X146163959Y-28564129D01*
X142323959Y-30404129D02*
X146163959Y-30404129D01*
X146163959Y-27691939D02*
X142323959Y-27691939D01*
X146163959Y-25851939D02*
X142323959Y-25851939D01*
X148795597Y-36615743D02*
X148795597Y-32775743D01*
X146955597Y-36615743D02*
X146955597Y-32775743D01*
X136852493Y-21472493D02*
X139752493Y-21472493D01*
X136852493Y-21472493D02*
X136362493Y-20982493D01*
X139752493Y-16032493D02*
X140242493Y-16522493D01*
X141022493Y-19792493D02*
X141022493Y-17712493D01*
X136852493Y-16032493D02*
X136362493Y-16522493D01*
X136852493Y-16032493D02*
X139752493Y-16032493D01*
X135582493Y-19792493D02*
X135582493Y-17712493D01*
X139752493Y-21472493D02*
X140242493Y-20982493D01*
X146493407Y-33461307D02*
X110813407Y-33461307D01*
X146493407Y-38761307D02*
X146493407Y-37111307D01*
X110813407Y-33461307D02*
X110813407Y-38761307D01*
X110813407Y-38761307D02*
X146493407Y-38761307D01*
X146493407Y-35111307D02*
X146493407Y-33461307D01*
X146493407Y-35111307D02*
G75*
G03*
X146493407Y-37111307I0J-1000000D01*
G01*
X131852493Y-24382493D02*
X122902493Y-24382493D01*
X131972493Y-17702493D02*
X131972493Y-14972493D01*
X131972493Y-14972493D02*
X122782493Y-14972493D01*
X122782493Y-21302493D02*
X122782493Y-20402493D01*
X131972493Y-21302493D02*
X131972493Y-20402493D01*
X122782493Y-17702493D02*
X122782493Y-14972493D01*
X120376327Y-25751767D02*
X113976327Y-25751767D01*
X120376327Y-30801767D02*
X113976327Y-30801767D01*
X120376327Y-30801767D02*
G75*
G03*
X120376327Y-25751767I0J2525000D01*
G01*
X113976327Y-25751767D02*
G75*
G03*
X113976327Y-30801767I0J-2525000D01*
G01*
X146852493Y-21472493D02*
X146362493Y-20982493D01*
X146852493Y-16032493D02*
X149752493Y-16032493D01*
X149752493Y-21472493D02*
X150242493Y-20982493D01*
X146852493Y-21472493D02*
X149752493Y-21472493D01*
X149752493Y-16032493D02*
X150242493Y-16522493D01*
X151022493Y-19792493D02*
X151022493Y-17712493D01*
X146852493Y-16032493D02*
X146362493Y-16522493D01*
X145582493Y-19792493D02*
X145582493Y-17712493D01*
X178507493Y-37157493D02*
X178507493Y-39757493D01*
X175907493Y-39757493D02*
X175907493Y-32017493D01*
X181107493Y-37157493D02*
X181107493Y-32017493D01*
X181107493Y-38427493D02*
X181107493Y-39757493D01*
X181107493Y-39757493D02*
X179777493Y-39757493D01*
X181107493Y-37157493D02*
X178507493Y-37157493D01*
X178507493Y-39757493D02*
X175907493Y-39757493D01*
X181107493Y-32017493D02*
X175907493Y-32017493D01*
X173462493Y-29892493D02*
X170602493Y-29892493D01*
X173462493Y-31812493D02*
X173462493Y-29892493D01*
X170602493Y-31812493D02*
X173462493Y-31812493D01*
X169882493Y-27682493D02*
X173722493Y-27682493D01*
X169882493Y-29522493D02*
X173722493Y-29522493D01*
M02*
