M48
; DRILL file {KiCad 7.0.7} date Tue Sep 19 16:43:08 2023
; FORMAT={-:-/ absolute / inch / decimal}
; #@! TF.CreationDate,2023-09-19T16:43:08+02:00
; #@! TF.GenerationSoftware,Kicad,Pcbnew,7.0.7
; #@! TF.FileFunction,NonPlated,1,2,NPTH
FMAT,2
INCH
; #@! TA.AperFunction,NonPlated,NPTH,ComponentDrill
T1C0.0669
; #@! TA.AperFunction,NonPlated,NPTH,ComponentDrill
T2C0.1201
; #@! TA.AperFunction,NonPlated,NPTH,ComponentDrill
T3C0.1575
%
G90
G05
T1
X4.335Y-2.055
X4.335Y-2.805
X4.335Y-3.555
X4.335Y-4.305
X4.712Y-5.052
X4.712Y-5.052
X4.735Y-2.055
X4.735Y-2.805
X4.735Y-3.555
X4.735Y-4.305
X5.085Y-2.055
X5.085Y-2.805
X5.085Y-3.555
X5.085Y-4.305
X5.112Y-5.052
X5.112Y-5.052
X5.485Y-2.055
X5.485Y-2.805
X5.485Y-3.555
X5.485Y-4.305
X5.835Y-2.055
X5.835Y-2.805
X5.835Y-3.555
X5.835Y-4.305
X5.835Y-5.055
X6.235Y-2.055
X6.235Y-2.805
X6.235Y-3.555
X6.235Y-4.305
X6.235Y-5.055
X6.585Y-2.055
X6.79Y-2.98
X6.79Y-3.38
X6.79Y-4.48
X6.79Y-4.88
X6.985Y-2.055
T2
X4.4435Y-5.3276
X5.3806Y-5.3276
X7.0656Y-2.7115
X7.0656Y-3.6485
X7.0656Y-4.2115
X7.0656Y-5.1485
T3
X4.4435Y-4.7276
X4.535Y-2.055
X4.535Y-2.805
X4.535Y-3.555
X4.535Y-4.305
X4.912Y-5.052
X4.912Y-5.052
X5.285Y-2.055
X5.285Y-2.805
X5.285Y-3.555
X5.285Y-4.305
X5.3806Y-4.7276
X6.035Y-2.055
X6.035Y-2.805
X6.035Y-3.555
X6.035Y-4.305
X6.035Y-5.055
X6.4656Y-2.7115
X6.4656Y-3.6485
X6.4656Y-4.2115
X6.4656Y-5.1485
X6.785Y-2.055
X6.79Y-3.18
X6.79Y-3.18
X6.79Y-4.68
X6.79Y-4.68
T0
M30
